<svg xmlns="http://www.w3.org/2000/svg" viewBox="0 0 1200 720" role="img" aria-label="Illustration of a sleek dental studio with moon shapes">
  <defs>
    <linearGradient id="bg" x1="0" y1="0" x2="1" y2="1"><stop stop-color="#17172f"/><stop offset="1" stop-color="#51358a"/></linearGradient>
    <linearGradient id="chair" x1="0" y1="0" x2="1" y2="1"><stop stop-color="#8ce4ff"/><stop offset="1" stop-color="#b8a7ff"/></linearGradient>
    <filter id="glow"><feGaussianBlur stdDeviation="5" result="b"/><feMerge><feMergeNode in="b"/><feMergeNode in="SourceGraphic"/></feMerge></filter>
  </defs>
  <rect width="1200" height="720" fill="url(#bg)"/>
  <circle cx="980" cy="120" r="96" fill="#fff6c8"/>
  <circle cx="1015" cy="100" r="96" fill="#3f2d78"/>
  <g opacity=".45" fill="#fff"><circle cx="160" cy="115" r="4"/><circle cx="270" cy="185" r="3"/><circle cx="760" cy="90" r="5"/><circle cx="1100" cy="335" r="4"/><circle cx="86" cy="410" r="3"/></g>
  <path d="M0 560c160-88 285-60 440-28 194 40 348 65 760-72v260H0z" fill="#25254d" opacity=".8"/>
  <g transform="translate(175 190)">
    <rect x="120" y="250" width="685" height="70" rx="35" fill="#ffffff" opacity=".95"/>
    <path d="M210 230c130-130 355-128 482-4 34 33 8 91-39 84l-395-57c-50-7-81 13-48-23z" fill="url(#chair)"/>
    <rect x="300" y="326" width="270" height="24" rx="12" fill="#b8a7ff"/>
    <path d="M740 120c75 44 92 123 50 211" stroke="#f7f2ff" stroke-width="20" stroke-linecap="round" fill="none"/>
    <circle cx="752" cy="116" r="36" fill="#fff"/>
    <path d="M770 108l54-36" stroke="#fff" stroke-width="11" stroke-linecap="round"/>
    <path d="M322 64c45 18 61 52 58 103-4 64-27 128-58 128s-54-64-58-128c-3-51 13-85 58-103z" fill="#fff" filter="url(#glow)"/>
    <path d="M322 118c13 24 19 58 16 108" stroke="#d5efff" stroke-width="8" stroke-linecap="round" opacity=".75"/>
  </g>
  <text x="92" y="620" fill="#fff" font-family="Inter, Arial" font-size="44" font-weight="800" opacity=".9">Luna Dental Studio</text>
</svg>
