<svg xmlns="http://www.w3.org/2000/svg" viewBox="0 0 1200 720" role="img" aria-label="Illustration of a bright family clinic reception">
  <defs>
    <linearGradient id="sky" x1="0" y1="0" x2="1" y2="1"><stop stop-color="#dff8ee"/><stop offset="1" stop-color="#e9f5ff"/></linearGradient>
    <linearGradient id="plant" x1="0" y1="0" x2="1" y2="1"><stop stop-color="#0d9b75"/><stop offset="1" stop-color="#72d5a5"/></linearGradient>
    <filter id="shadow" x="-20%" y="-20%" width="140%" height="140%"><feDropShadow dx="0" dy="18" stdDeviation="20" flood-color="#2c725e" flood-opacity=".18"/></filter>
  </defs>
  <rect width="1200" height="720" fill="url(#sky)"/>
  <circle cx="980" cy="120" r="170" fill="#fff" opacity=".55"/>
  <circle cx="160" cy="585" r="220" fill="#bcebd5" opacity=".45"/>
  <g filter="url(#shadow)">
    <rect x="145" y="135" width="910" height="470" rx="48" fill="#fff"/>
    <rect x="200" y="205" width="295" height="145" rx="26" fill="#e8f8f0"/>
    <rect x="535" y="205" width="465" height="145" rx="26" fill="#f6fbff"/>
    <rect x="200" y="392" width="800" height="112" rx="30" fill="#0f8a70"/>
    <rect x="260" y="424" width="210" height="18" rx="9" fill="#dff8ee" opacity=".9"/>
    <rect x="260" y="459" width="125" height="18" rx="9" fill="#dff8ee" opacity=".75"/>
    <circle cx="325" cy="278" r="48" fill="#ffca7a"/>
    <path d="M252 346c18-45 55-70 75-70s58 25 76 70" fill="#2f80ed" opacity=".88"/>
    <circle cx="410" cy="289" r="36" fill="#f2a66f"/>
    <path d="M354 346c15-34 44-53 58-53s44 19 58 53" fill="#72d5a5"/>
    <circle cx="810" cy="277" r="58" fill="#8fd3ff" opacity=".65"/>
    <path d="M810 227v100M760 277h100" stroke="#0f8a70" stroke-width="34" stroke-linecap="round"/>
  </g>
  <g transform="translate(912 468)">
    <rect x="35" y="86" width="84" height="58" rx="12" fill="#be8f61"/>
    <path d="M77 16C30 74 22 115 23 174h108C133 111 122 65 77 16z" fill="url(#plant)"/>
    <path d="M78 50c-3 45-2 83 0 124" stroke="#087459" stroke-width="8" stroke-linecap="round" opacity=".45"/>
    <path d="M77 83c28-18 45-20 66-17" stroke="#087459" stroke-width="7" stroke-linecap="round" opacity=".35"/>
    <path d="M77 108c-25-17-46-19-62-14" stroke="#087459" stroke-width="7" stroke-linecap="round" opacity=".35"/>
  </g>
</svg>
