<svg width="1440" height="1024" viewBox="0 0 1440 1024" fill="none" xmlns="http://www.w3.org/2000/svg"><defs><filter id="shadow" x="-20%" y="-20%" width="140%" height="140%"><feDropShadow dx="0" dy="18" stdDeviation="18" flood-color="#0F172A" flood-opacity="0.08"/></filter><linearGradient id="hero" x1="0" y1="0" x2="1" y2="1"><stop stop-color="#2563EB"/><stop offset="1" stop-color="#14B8A6"/></linearGradient></defs><rect width="1440" height="1024" fill="#F6F8FC"/><circle cx="1240" cy="90" r="280" fill="#DBEAFE" opacity="0.75"/><circle cx="80" cy="930" r="320" fill="#CCFBF1" opacity="0.5"/><text x="72" y="70" font-family="Inter, Geist, Arial, sans-serif" font-size="28" font-weight="900" fill="#2563EB">StormeAI</text><text x="72" y="118" font-family="Inter, Geist, Arial, sans-serif" font-size="42" font-weight="850" fill="#0B1220">Landing Page</text><text x="72" y="154" font-family="Inter, Geist, Arial, sans-serif" font-size="17" font-weight="500" fill="#64748B">Modern patient chat automation for organizations</text><rect x="48" y="34" width="1344" height="72" rx="24" fill="rgba(255,255,255,.78)" stroke="#E2E8F0" stroke-width="1"/><text x="78" y="80" font-family="Inter, Geist, Arial, sans-serif" font-size="24" font-weight="900" fill="#2563EB">StormeAI</text><text x="260" y="79" font-family="Inter, Geist, Arial, sans-serif" font-size="14" font-weight="750" fill="#64748B">Dashboard</text><text x="395" y="79" font-family="Inter, Geist, Arial, sans-serif" font-size="14" font-weight="750" fill="#2563EB">Agent</text><text x="530" y="79" font-family="Inter, Geist, Arial, sans-serif" font-size="14" font-weight="750" fill="#64748B">Knowledge</text><text x="665" y="79" font-family="Inter, Geist, Arial, sans-serif" font-size="14" font-weight="750" fill="#64748B">Appointments</text><text x="800" y="79" font-family="Inter, Geist, Arial, sans-serif" font-size="14" font-weight="750" fill="#64748B">Workflows</text><text x="935" y="79" font-family="Inter, Geist, Arial, sans-serif" font-size="14" font-weight="750" fill="#64748B">Billing</text><rect x="1242" y="52" width="118" height="36" rx="18" fill="#EFF6FF" stroke="#EFF6FF" stroke-width="1"/><text x="1262" y="75" font-family="Inter, Geist, Arial, sans-serif" font-size="13" font-weight="800" fill="#2563EB">Live organization</text><rect x="72" y="220" width="245" height="34" rx="17" fill="#14B8A6" opacity="0.12"/><text x="87" y="242" font-family="Inter, Arial" font-size="12" font-weight="800" fill="#14B8A6">CHAT-ONLY AI AGENT</text><text x="72" y="310" font-family="Inter, Geist, Arial, sans-serif" font-size="58" font-weight="900" fill="#0B1220">Turn organization chats into booked appointments.</text><text x="72" y="374" font-family="Inter, Geist, Arial, sans-serif" font-size="21" font-weight="500" fill="#64748B">StormeAI answers organization FAQs, collects appointment details, and routes sensitive cases to staff — safely, 24/7.</text><rect x="72" y="430" width="155" height="52" rx="16" fill="#2563EB" stroke="#2563EB" stroke-width="1"/><text x="100" y="463" font-family="Inter, Geist, Arial, sans-serif" font-size="16" font-weight="800" fill="#FFF">Start beta</text><rect x="244" y="430" width="170" height="52" rx="16" fill="#FFFFFF" stroke="#E2E8F0" stroke-width="1"/><text x="272" y="463" font-family="Inter, Geist, Arial, sans-serif" font-size="16" font-weight="800" fill="#2563EB">See workflows</text><rect x="750" y="210" width="570" height="560" rx="38" fill="#FFFFFF" stroke="#E2E8F0" stroke-width="1"/><text x="800" y="270" font-family="Inter, Geist, Arial, sans-serif" font-size="26" font-weight="900" fill="#0B1220">Live patient chat</text><rect x="800" y="292" width="250" height="34" rx="17" fill="#2563EB" opacity="0.12"/><text x="815" y="314" font-family="Inter, Arial" font-size="12" font-weight="800" fill="#2563EB">No diagnosis • appointment-first</text><rect x="800" y="360" width="360" height="62" rx="22" fill="#EFF6FF" stroke="#EFF6FF" stroke-width="1"/><text x="830" y="397" font-family="Inter, Geist, Arial, sans-serif" font-size="16" font-weight="700" fill="#0B1220">Do you offer acne consultation?</text><rect x="860" y="452" width="380" height="104" rx="22" fill="#F0FDFA" stroke="#F0FDFA" stroke-width="1"/><text x="890" y="486" font-family="Inter, Geist, Arial, sans-serif" font-size="15" font-weight="650" fill="#0B1220">Yes, our dermatology organization offers</text><text x="890" y="512" font-family="Inter, Geist, Arial, sans-serif" font-size="15" font-weight="650" fill="#0B1220">consultations. Want to book a schedule?</text><rect x="800" y="600" width="440" height="72" rx="22" fill="#F8FAFC" stroke="#E2E8F0" stroke-width="1"/><text x="830" y="640" font-family="Inter, Geist, Arial, sans-serif" font-size="16" font-weight="800" fill="#0B1220">Booking details collected securely</text><rect x="760" y="790" width="95" height="34" rx="17" fill="#2563EB" opacity="0.12"/><text x="775" y="812" font-family="Inter, Arial" font-size="12" font-weight="800" fill="#2563EB">Organization FAQ</text><rect x="870" y="790" width="95" height="34" rx="17" fill="#14B8A6" opacity="0.12"/><text x="885" y="812" font-family="Inter, Arial" font-size="12" font-weight="800" fill="#14B8A6">Appointments</text><rect x="980" y="790" width="95" height="34" rx="17" fill="#7C3AED" opacity="0.12"/><text x="995" y="812" font-family="Inter, Arial" font-size="12" font-weight="800" fill="#7C3AED">RAG</text><rect x="1090" y="790" width="95" height="34" rx="17" fill="#F59E0B" opacity="0.12"/><text x="1105" y="812" font-family="Inter, Arial" font-size="12" font-weight="800" fill="#F59E0B">n8n</text><rect x="1200" y="790" width="95" height="34" rx="17" fill="#DC2626" opacity="0.12"/><text x="1215" y="812" font-family="Inter, Arial" font-size="12" font-weight="800" fill="#DC2626">Handoff</text></svg>