<svg width="1440" height="1024" viewBox="0 0 1440 1024" fill="none" xmlns="http://www.w3.org/2000/svg"><rect width="1440" height="1024" fill="#F8FAFC"/><circle cx="1230" cy="120" r="260" fill="#EFF6FF"/><circle cx="120" cy="940" r="260" fill="#F0FDFA"/><text x="72" y="78" font-family="Inter, Arial, sans-serif" font-size="28" font-weight="800" fill="#2563EB">StormeAI</text><text x="72" y="126" font-family="Inter, Arial, sans-serif" font-size="44" font-weight="800" fill="#0F172A">Landing Page</text><text x="72" y="164" font-family="Inter, Arial, sans-serif" font-size="18" font-weight="500" fill="#64748B">Chat-only AI receptionist for clinics</text><rect x="72" y="220" width="230" height="36" rx="18" fill="#14B8A6" opacity="0.12"/><text x="88" y="244" font-family="Inter, Arial, sans-serif" font-size="13" font-weight="700" fill="#14B8A6">CHAT-ONLY AI FRONT DESK</text><text x="72" y="310" font-family="Inter, Arial, sans-serif" font-size="56" font-weight="800" fill="#0F172A">Answer patient questions and book appointments 24/7.</text><text x="72" y="370" font-family="Inter, Arial, sans-serif" font-size="22" font-weight="500" fill="#64748B">StormeAI helps clinics respond instantly, reduce repetitive admin work, and capture more bookings through safe chat automation.</text><rect x="72" y="430" width="190" height="56" rx="18" fill="#2563EB" stroke="#2563EB"/><text x="110" y="466" font-family="Inter, Arial, sans-serif" font-size="18" font-weight="800" fill="#FFF">Start beta</text><rect x="282" y="430" width="210" height="56" rx="18" fill="#FFF" stroke="#E2E8F0"/><text x="318" y="466" font-family="Inter, Arial, sans-serif" font-size="18" font-weight="800" fill="#2563EB">View demo</text><rect x="760" y="220" width="540" height="520" rx="36" fill="#FFF" stroke="#E2E8F0"/> <text x="810" y="280" font-family="Inter, Arial, sans-serif" font-size="22" font-weight="800" fill="#0F172A">Patient Chat Preview</text><rect x="810" y="320" width="410" height="54" rx="20" fill="#EFF6FF" stroke="#EFF6FF"/><text x="836" y="354" font-family="Inter, Arial, sans-serif" font-size="16" font-weight="600" fill="#0F172A">Hi! Do you offer dental cleaning?</text><rect x="870" y="398" width="360" height="86" rx="20" fill="#F0FDFA" stroke="#F0FDFA"/><text x="896" y="430" font-family="Inter, Arial, sans-serif" font-size="16" font-weight="600" fill="#0F172A">Yes. Dental cleaning is available.</text><text x="896" y="458" font-family="Inter, Arial, sans-serif" font-size="16" font-weight="600" fill="#0F172A">Would you like to book a schedule?</text><rect x="760" y="790" width="250" height="52" rx="18" fill="#FFF" stroke="#E2E8F0"/> <text x="784" y="824" font-family="Inter, Arial, sans-serif" font-size="16" font-weight="700" fill="#0F172A">Instant FAQ answers</text><rect x="1040" y="790" width="250" height="52" rx="18" fill="#FFF" stroke="#E2E8F0"/> <text x="1064" y="824" font-family="Inter, Arial, sans-serif" font-size="16" font-weight="700" fill="#0F172A">Appointment capture</text><rect x="760" y="862" width="250" height="52" rx="18" fill="#FFF" stroke="#E2E8F0"/> <text x="784" y="896" font-family="Inter, Arial, sans-serif" font-size="16" font-weight="700" fill="#0F172A">Human handoff</text><rect x="1040" y="862" width="250" height="52" rx="18" fill="#FFF" stroke="#E2E8F0"/> <text x="1064" y="896" font-family="Inter, Arial, sans-serif" font-size="16" font-weight="700" fill="#0F172A">No diagnosis</text></svg>