<svg width="1440" height="1024" viewBox="0 0 1440 1024" fill="none" xmlns="http://www.w3.org/2000/svg"><rect width="1440" height="1024" fill="#F8FAFC"/><circle cx="1230" cy="120" r="260" fill="#EFF6FF"/><circle cx="120" cy="940" r="260" fill="#F0FDFA"/><text x="72" y="78" font-family="Inter, Arial, sans-serif" font-size="28" font-weight="800" fill="#2563EB">StormeAI</text><text x="72" y="126" font-family="Inter, Arial, sans-serif" font-size="44" font-weight="800" fill="#0F172A">Clinic Onboarding</text><text x="72" y="164" font-family="Inter, Arial, sans-serif" font-size="18" font-weight="500" fill="#64748B">Create the clinic workspace and receptionist basics</text><rect x="120" y="230" width="1200" height="620" rx="34" fill="#FFF" stroke="#E2E8F0"/> <text x="170" y="300" font-family="Inter, Arial, sans-serif" font-size="14" font-weight="800" fill="#14B8A6">Step 1 of 4</text><text x="170" y="344" font-family="Inter, Arial, sans-serif" font-size="32" font-weight="800" fill="#0F172A">Tell us about your clinic</text><text x="170" y="410" font-family="Inter, Arial, sans-serif" font-size="14" font-weight="700" fill="#64748B">Clinic name</text><rect x="170" y="430" width="430" height="56" rx="16" fill="#FFF" stroke="#E2E8F0"/><text x="690" y="410" font-family="Inter, Arial, sans-serif" font-size="14" font-weight="700" fill="#64748B">Clinic type</text><rect x="690" y="430" width="430" height="56" rx="16" fill="#FFF" stroke="#E2E8F0"/><text x="170" y="520" font-family="Inter, Arial, sans-serif" font-size="14" font-weight="700" fill="#64748B">Main location</text><rect x="170" y="540" width="430" height="56" rx="16" fill="#FFF" stroke="#E2E8F0"/><text x="690" y="520" font-family="Inter, Arial, sans-serif" font-size="14" font-weight="700" fill="#64748B">Business hours</text><rect x="690" y="540" width="430" height="56" rx="16" fill="#FFF" stroke="#E2E8F0"/><text x="170" y="630" font-family="Inter, Arial, sans-serif" font-size="14" font-weight="700" fill="#64748B">Contact email</text><rect x="170" y="650" width="430" height="56" rx="16" fill="#FFF" stroke="#E2E8F0"/><text x="690" y="630" font-family="Inter, Arial, sans-serif" font-size="14" font-weight="700" fill="#64748B">Primary service</text><rect x="690" y="650" width="430" height="56" rx="16" fill="#FFF" stroke="#E2E8F0"/> <rect x="980" y="760" width="260" height="58" rx="18" fill="#2563EB" stroke="#2563EB"/><text x="1045" y="797" font-family="Inter, Arial, sans-serif" font-size="18" font-weight="800" fill="#FFF">Continue</text></svg>