<svg width="1440" height="1024" viewBox="0 0 1440 1024" fill="none" xmlns="http://www.w3.org/2000/svg"><rect width="1440" height="1024" fill="#F8FAFC"/><circle cx="1230" cy="120" r="260" fill="#EFF6FF"/><circle cx="120" cy="940" r="260" fill="#F0FDFA"/><text x="72" y="78" font-family="Inter, Arial, sans-serif" font-size="28" font-weight="800" fill="#2563EB">StormeAI</text><text x="72" y="126" font-family="Inter, Arial, sans-serif" font-size="44" font-weight="800" fill="#0F172A">Dashboard Overview</text><text x="72" y="164" font-family="Inter, Arial, sans-serif" font-size="18" font-weight="500" fill="#64748B">Clinic operational snapshot</text><rect x="48" y="200" width="260" height="720" rx="28" fill="#FFFFFF" stroke="#E2E8F0"/> <text x="78" y="250" font-family="Inter, Arial, sans-serif" font-size="16" font-weight="700" fill="#64748B">Navigation</text> <rect x="74" y="280" width="208" height="42" rx="14" fill="#EFF6FF" stroke="#2563EB"/><text x="94" y="307" font-family="Inter, Arial, sans-serif" font-size="15" font-weight="700" fill="#2563EB">Dashboard</text><rect x="74" y="338" width="208" height="42" rx="14" fill="#FFF" stroke="#E2E8F0"/><text x="94" y="365" font-family="Inter, Arial, sans-serif" font-size="15" font-weight="700" fill="#64748B">AI Receptionist</text><rect x="74" y="396" width="208" height="42" rx="14" fill="#FFF" stroke="#E2E8F0"/><text x="94" y="423" font-family="Inter, Arial, sans-serif" font-size="15" font-weight="700" fill="#64748B">Knowledge Base</text><rect x="74" y="454" width="208" height="42" rx="14" fill="#FFF" stroke="#E2E8F0"/><text x="94" y="481" font-family="Inter, Arial, sans-serif" font-size="15" font-weight="700" fill="#64748B">Appointments</text><rect x="74" y="512" width="208" height="42" rx="14" fill="#FFF" stroke="#E2E8F0"/><text x="94" y="539" font-family="Inter, Arial, sans-serif" font-size="15" font-weight="700" fill="#64748B">Workflows</text><rect x="74" y="570" width="208" height="42" rx="14" fill="#FFF" stroke="#E2E8F0"/><text x="94" y="597" font-family="Inter, Arial, sans-serif" font-size="15" font-weight="700" fill="#64748B">Billing</text><rect x="350" y="220" width="220" height="138" rx="24" fill="#FFF" stroke="#E2E8F0"/> <text x="376" y="268" font-family="Inter, Arial, sans-serif" font-size="38" font-weight="800" fill="#0F172A">42</text><text x="376" y="306" font-family="Inter, Arial, sans-serif" font-size="15" font-weight="600" fill="#64748B">Conversations today</text><rect x="595" y="220" width="220" height="138" rx="24" fill="#FFF" stroke="#E2E8F0"/> <text x="621" y="268" font-family="Inter, Arial, sans-serif" font-size="38" font-weight="800" fill="#0F172A">8</text><text x="621" y="306" font-family="Inter, Arial, sans-serif" font-size="15" font-weight="600" fill="#64748B">Appointment requests</text><rect x="840" y="220" width="220" height="138" rx="24" fill="#FFF" stroke="#E2E8F0"/> <text x="866" y="268" font-family="Inter, Arial, sans-serif" font-size="38" font-weight="800" fill="#0F172A">3</text><text x="866" y="306" font-family="Inter, Arial, sans-serif" font-size="15" font-weight="600" fill="#64748B">Handoff needed</text><rect x="1085" y="220" width="220" height="138" rx="24" fill="#FFF" stroke="#E2E8F0"/> <text x="1111" y="268" font-family="Inter, Arial, sans-serif" font-size="38" font-weight="800" fill="#0F172A">5</text><text x="1111" y="306" font-family="Inter, Arial, sans-serif" font-size="15" font-weight="600" fill="#64748B">Knowledge gaps</text> <rect x="350" y="400" width="570" height="430" rx="26" fill="#FFF" stroke="#E2E8F0"/> <text x="386" y="452" font-family="Inter, Arial, sans-serif" font-size="24" font-weight="800" fill="#0F172A">Recent conversations</text><rect x="386" y="490" width="480" height="48" rx="16" fill="#FFF" stroke="#E2E8F0"/> <text x="410" y="520" font-family="Inter, Arial, sans-serif" font-size="16" font-weight="700" fill="#0F172A">Dental cleaning inquiry</text><rect x="386" y="562" width="480" height="48" rx="16" fill="#F8FAFC" stroke="#E2E8F0"/> <text x="410" y="592" font-family="Inter, Arial, sans-serif" font-size="16" font-weight="700" fill="#0F172A">Derma consultation booking</text><rect x="386" y="634" width="480" height="48" rx="16" fill="#FFF" stroke="#E2E8F0"/> <text x="410" y="664" font-family="Inter, Arial, sans-serif" font-size="16" font-weight="700" fill="#0F172A">Clinic hours question</text><rect x="386" y="706" width="480" height="48" rx="16" fill="#F8FAFC" stroke="#E2E8F0"/> <text x="410" y="736" font-family="Inter, Arial, sans-serif" font-size="16" font-weight="700" fill="#0F172A">Human handoff requested</text> <rect x="960" y="400" width="340" height="430" rx="26" fill="#FFF" stroke="#E2E8F0"/> <text x="996" y="452" font-family="Inter, Arial, sans-serif" font-size="24" font-weight="800" fill="#0F172A">Receptionist status</text><rect x="996" y="488" width="110" height="36" rx="18" fill="#16A34A" opacity="0.12"/><text x="1012" y="512" font-family="Inter, Arial, sans-serif" font-size="13" font-weight="700" fill="#16A34A">ONLINE</text><text x="996" y="570" font-family="Inter, Arial, sans-serif" font-size="14" font-weight="700" fill="#64748B">Default model</text><text x="996" y="604" font-family="Inter, Arial, sans-serif" font-size="22" font-weight="800" fill="#0F172A">Ollama qwen2.5:7b</text><text x="996" y="670" font-family="Inter, Arial, sans-serif" font-size="14" font-weight="700" fill="#64748B">Safety mode</text><text x="996" y="704" font-family="Inter, Arial, sans-serif" font-size="18" font-weight="700" fill="#0F172A">No diagnosis / emergency handoff</text></svg>