<svg width="1440" height="1024" viewBox="0 0 1440 1024" fill="none" xmlns="http://www.w3.org/2000/svg"><defs><filter id="shadow" x="-20%" y="-20%" width="140%" height="140%"><feDropShadow dx="0" dy="18" stdDeviation="18" flood-color="#0F172A" flood-opacity="0.08"/></filter><linearGradient id="hero" x1="0" y1="0" x2="1" y2="1"><stop stop-color="#2563EB"/><stop offset="1" stop-color="#14B8A6"/></linearGradient></defs><rect width="1440" height="1024" fill="#F6F8FC"/><circle cx="1240" cy="90" r="280" fill="#DBEAFE" opacity="0.75"/><circle cx="80" cy="930" r="320" fill="#CCFBF1" opacity="0.5"/><text x="72" y="70" font-family="Inter, Geist, Arial, sans-serif" font-size="28" font-weight="900" fill="#2563EB">StormeAI</text><text x="72" y="118" font-family="Inter, Geist, Arial, sans-serif" font-size="42" font-weight="850" fill="#0B1220">Dashboard Overview</text><text x="72" y="154" font-family="Inter, Geist, Arial, sans-serif" font-size="17" font-weight="500" fill="#64748B">Daily command center for clinic admins</text><rect x="48" y="190" width="272" height="770" rx="30" fill="rgba(255,255,255,.86)" stroke="#E2E8F0" stroke-width="1"/><text x="82" y="242" font-family="Inter, Geist, Arial, sans-serif" font-size="15" font-weight="800" fill="#64748B">Clinic Workspace</text><rect x="76" y="270" width="216" height="42" rx="15" fill="#EFF6FF" stroke="#2563EB" stroke-width="1"/><text x="96" y="297" font-family="Inter, Geist, Arial, sans-serif" font-size="14" font-weight="800" fill="#2563EB">Dashboard</text><rect x="76" y="328" width="216" height="42" rx="15" fill="transparent" stroke="transparent" stroke-width="1"/><text x="96" y="355" font-family="Inter, Geist, Arial, sans-serif" font-size="14" font-weight="800" fill="#64748B">AI Receptionist</text><rect x="76" y="386" width="216" height="42" rx="15" fill="transparent" stroke="transparent" stroke-width="1"/><text x="96" y="413" font-family="Inter, Geist, Arial, sans-serif" font-size="14" font-weight="800" fill="#64748B">Personality</text><rect x="76" y="444" width="216" height="42" rx="15" fill="transparent" stroke="transparent" stroke-width="1"/><text x="96" y="471" font-family="Inter, Geist, Arial, sans-serif" font-size="14" font-weight="800" fill="#64748B">AI Providers</text><rect x="76" y="502" width="216" height="42" rx="15" fill="transparent" stroke="transparent" stroke-width="1"/><text x="96" y="529" font-family="Inter, Geist, Arial, sans-serif" font-size="14" font-weight="800" fill="#64748B">Knowledge Base</text><rect x="76" y="560" width="216" height="42" rx="15" fill="transparent" stroke="transparent" stroke-width="1"/><text x="96" y="587" font-family="Inter, Geist, Arial, sans-serif" font-size="14" font-weight="800" fill="#64748B">Appointments</text><rect x="76" y="618" width="216" height="42" rx="15" fill="transparent" stroke="transparent" stroke-width="1"/><text x="96" y="645" font-family="Inter, Geist, Arial, sans-serif" font-size="14" font-weight="800" fill="#64748B">Workflows</text><rect x="76" y="676" width="216" height="42" rx="15" fill="transparent" stroke="transparent" stroke-width="1"/><text x="96" y="703" font-family="Inter, Geist, Arial, sans-serif" font-size="14" font-weight="800" fill="#64748B">n8n</text><rect x="76" y="734" width="216" height="42" rx="15" fill="transparent" stroke="transparent" stroke-width="1"/><text x="96" y="761" font-family="Inter, Geist, Arial, sans-serif" font-size="14" font-weight="800" fill="#64748B">Billing</text><rect x="76" y="792" width="216" height="42" rx="15" fill="transparent" stroke="transparent" stroke-width="1"/><text x="96" y="819" font-family="Inter, Geist, Arial, sans-serif" font-size="14" font-weight="800" fill="#64748B">Analytics</text><rect x="76" y="850" width="216" height="42" rx="15" fill="transparent" stroke="transparent" stroke-width="1"/><text x="96" y="877" font-family="Inter, Geist, Arial, sans-serif" font-size="14" font-weight="800" fill="#64748B">Safety</text><rect x="350" y="220" width="210" height="128" rx="24" fill="#FFFFFF" stroke="#E2E8F0" stroke-width="1"/><text x="382" y="268" font-family="Inter, Geist, Arial, sans-serif" font-size="38" font-weight="900" fill="#0B1220">48</text><text x="382" y="307" font-family="Inter, Geist, Arial, sans-serif" font-size="14" font-weight="700" fill="#64748B">Chats today</text><rect x="382" y="320" width="80" height="34" rx="17" fill="#16A34A" opacity="0.12"/><text x="397" y="342" font-family="Inter, Arial" font-size="12" font-weight="800" fill="#16A34A">Today</text><rect x="585" y="220" width="210" height="128" rx="24" fill="#FFFFFF" stroke="#E2E8F0" stroke-width="1"/><text x="617" y="268" font-family="Inter, Geist, Arial, sans-serif" font-size="38" font-weight="900" fill="#0B1220">12</text><text x="617" y="307" font-family="Inter, Geist, Arial, sans-serif" font-size="14" font-weight="700" fill="#64748B">Booking requests</text><rect x="617" y="320" width="80" height="34" rx="17" fill="#16A34A" opacity="0.12"/><text x="632" y="342" font-family="Inter, Arial" font-size="12" font-weight="800" fill="#16A34A">+18%</text><rect x="820" y="220" width="210" height="128" rx="24" fill="#FFFFFF" stroke="#E2E8F0" stroke-width="1"/><text x="852" y="268" font-family="Inter, Geist, Arial, sans-serif" font-size="38" font-weight="900" fill="#0B1220">4</text><text x="852" y="307" font-family="Inter, Geist, Arial, sans-serif" font-size="14" font-weight="700" fill="#64748B">Need handoff</text><rect x="852" y="320" width="80" height="34" rx="17" fill="#DC2626" opacity="0.12"/><text x="867" y="342" font-family="Inter, Arial" font-size="12" font-weight="800" fill="#DC2626">Today</text><rect x="1055" y="220" width="210" height="128" rx="24" fill="#FFFFFF" stroke="#E2E8F0" stroke-width="1"/><text x="1087" y="268" font-family="Inter, Geist, Arial, sans-serif" font-size="38" font-weight="900" fill="#0B1220">7</text><text x="1087" y="307" font-family="Inter, Geist, Arial, sans-serif" font-size="14" font-weight="700" fill="#64748B">Knowledge gaps</text><rect x="1087" y="320" width="80" height="34" rx="17" fill="#16A34A" opacity="0.12"/><text x="1102" y="342" font-family="Inter, Arial" font-size="12" font-weight="800" fill="#16A34A">Today</text><rect x="350" y="390" width="580" height="430" rx="28" fill="#FFFFFF" stroke="#E2E8F0" stroke-width="1"/><text x="390" y="450" font-family="Inter, Geist, Arial, sans-serif" font-size="26" font-weight="900" fill="#0B1220">Conversation inbox</text><rect x="390" y="490" width="500" height="52" rx="16" fill="#FFF" stroke="#E2E8F0" stroke-width="1"/><text x="415" y="523" font-family="Inter, Geist, Arial, sans-serif" font-size="16" font-weight="800" fill="#0B1220">Dental cleaning inquiry</text><rect x="390" y="562" width="500" height="52" rx="16" fill="#FFF" stroke="#E2E8F0" stroke-width="1"/><text x="415" y="595" font-family="Inter, Geist, Arial, sans-serif" font-size="16" font-weight="800" fill="#0B1220">Appointment request: Derma</text><rect x="390" y="634" width="500" height="52" rx="16" fill="#FFF" stroke="#E2E8F0" stroke-width="1"/><text x="415" y="667" font-family="Inter, Geist, Arial, sans-serif" font-size="16" font-weight="800" fill="#0B1220">Pricing question</text><rect x="390" y="706" width="500" height="52" rx="16" fill="#FEF2F2" stroke="#FECACA" stroke-width="1"/><text x="415" y="739" font-family="Inter, Geist, Arial, sans-serif" font-size="16" font-weight="800" fill="#DC2626">Emergency keyword detected</text><rect x="970" y="390" width="330" height="430" rx="28" fill="#FFFFFF" stroke="#E2E8F0" stroke-width="1"/><text x="1010" y="450" font-family="Inter, Geist, Arial, sans-serif" font-size="24" font-weight="900" fill="#0B1220">Receptionist health</text><rect x="1010" y="480" width="110" height="34" rx="17" fill="#16A34A" opacity="0.12"/><text x="1025" y="502" font-family="Inter, Arial" font-size="12" font-weight="800" fill="#16A34A">ONLINE</text><text x="1010" y="560" font-family="Inter, Geist, Arial, sans-serif" font-size="13" font-weight="800" fill="#64748B">Model route</text><text x="1010" y="594" font-family="Inter, Geist, Arial, sans-serif" font-size="18" font-weight="800" fill="#0B1220">Ollama → Claude fallback</text><text x="1010" y="670" font-family="Inter, Geist, Arial, sans-serif" font-size="13" font-weight="800" fill="#64748B">Safety mode</text><text x="1010" y="704" font-family="Inter, Geist, Arial, sans-serif" font-size="18" font-weight="800" fill="#0B1220">Strict clinic receptionist</text></svg>