<svg width="1440" height="1024" viewBox="0 0 1440 1024" fill="none" xmlns="http://www.w3.org/2000/svg"><defs><filter id="shadow" x="-20%" y="-20%" width="140%" height="140%"><feDropShadow dx="0" dy="18" stdDeviation="18" flood-color="#0F172A" flood-opacity="0.08"/></filter><linearGradient id="hero" x1="0" y1="0" x2="1" y2="1"><stop stop-color="#2563EB"/><stop offset="1" stop-color="#14B8A6"/></linearGradient></defs><rect width="1440" height="1024" fill="#F6F8FC"/><circle cx="1240" cy="90" r="280" fill="#DBEAFE" opacity="0.75"/><circle cx="80" cy="930" r="320" fill="#CCFBF1" opacity="0.5"/><text x="72" y="70" font-family="Inter, Geist, Arial, sans-serif" font-size="28" font-weight="900" fill="#2563EB">StormeAI</text><text x="72" y="118" font-family="Inter, Geist, Arial, sans-serif" font-size="42" font-weight="850" fill="#0B1220">AI Receptionist Command Center</text><text x="72" y="154" font-family="Inter, Geist, Arial, sans-serif" font-size="17" font-weight="500" fill="#64748B">One page to control the receptionist experience</text><rect x="48" y="190" width="272" height="770" rx="30" fill="rgba(255,255,255,.86)" stroke="#E2E8F0" stroke-width="1"/><text x="82" y="242" font-family="Inter, Geist, Arial, sans-serif" font-size="15" font-weight="800" fill="#64748B">Clinic Workspace</text><rect x="76" y="270" width="216" height="42" rx="15" fill="transparent" stroke="transparent" stroke-width="1"/><text x="96" y="297" font-family="Inter, Geist, Arial, sans-serif" font-size="14" font-weight="800" fill="#64748B">Dashboard</text><rect x="76" y="328" width="216" height="42" rx="15" fill="#EFF6FF" stroke="#2563EB" stroke-width="1"/><text x="96" y="355" font-family="Inter, Geist, Arial, sans-serif" font-size="14" font-weight="800" fill="#2563EB">AI Receptionist</text><rect x="76" y="386" width="216" height="42" rx="15" fill="transparent" stroke="transparent" stroke-width="1"/><text x="96" y="413" font-family="Inter, Geist, Arial, sans-serif" font-size="14" font-weight="800" fill="#64748B">Personality</text><rect x="76" y="444" width="216" height="42" rx="15" fill="transparent" stroke="transparent" stroke-width="1"/><text x="96" y="471" font-family="Inter, Geist, Arial, sans-serif" font-size="14" font-weight="800" fill="#64748B">AI Providers</text><rect x="76" y="502" width="216" height="42" rx="15" fill="transparent" stroke="transparent" stroke-width="1"/><text x="96" y="529" font-family="Inter, Geist, Arial, sans-serif" font-size="14" font-weight="800" fill="#64748B">Knowledge Base</text><rect x="76" y="560" width="216" height="42" rx="15" fill="transparent" stroke="transparent" stroke-width="1"/><text x="96" y="587" font-family="Inter, Geist, Arial, sans-serif" font-size="14" font-weight="800" fill="#64748B">Appointments</text><rect x="76" y="618" width="216" height="42" rx="15" fill="transparent" stroke="transparent" stroke-width="1"/><text x="96" y="645" font-family="Inter, Geist, Arial, sans-serif" font-size="14" font-weight="800" fill="#64748B">Workflows</text><rect x="76" y="676" width="216" height="42" rx="15" fill="transparent" stroke="transparent" stroke-width="1"/><text x="96" y="703" font-family="Inter, Geist, Arial, sans-serif" font-size="14" font-weight="800" fill="#64748B">n8n</text><rect x="76" y="734" width="216" height="42" rx="15" fill="transparent" stroke="transparent" stroke-width="1"/><text x="96" y="761" font-family="Inter, Geist, Arial, sans-serif" font-size="14" font-weight="800" fill="#64748B">Billing</text><rect x="76" y="792" width="216" height="42" rx="15" fill="transparent" stroke="transparent" stroke-width="1"/><text x="96" y="819" font-family="Inter, Geist, Arial, sans-serif" font-size="14" font-weight="800" fill="#64748B">Analytics</text><rect x="76" y="850" width="216" height="42" rx="15" fill="transparent" stroke="transparent" stroke-width="1"/><text x="96" y="877" font-family="Inter, Geist, Arial, sans-serif" font-size="14" font-weight="800" fill="#64748B">Safety</text><rect x="350" y="220" width="430" height="150" rx="24" fill="#FFFFFF" stroke="#E2E8F0" stroke-width="1"/><rect x="372" y="242" width="42" height="42" rx="14" fill="#16A34A" stroke="#16A34A" stroke-width="1"/><text x="428" y="268" font-family="Inter, Geist, Arial, sans-serif" font-size="19" font-weight="850" fill="#0B1220">Receptionist status</text><text x="428" y="295" font-family="Inter, Geist, Arial, sans-serif" font-size="14" font-weight="500" fill="#64748B">Online • responding in 2.1s</text><rect x="810" y="220" width="490" height="150" rx="24" fill="#FFFFFF" stroke="#E2E8F0" stroke-width="1"/><rect x="832" y="242" width="42" height="42" rx="14" fill="#2563EB" stroke="#2563EB" stroke-width="1"/><text x="888" y="268" font-family="Inter, Geist, Arial, sans-serif" font-size="19" font-weight="850" fill="#0B1220">Active clinic profile</text><text x="888" y="295" font-family="Inter, Geist, Arial, sans-serif" font-size="14" font-weight="500" fill="#64748B">Storme Dental Clinic • Taglish enabled</text><rect x="350" y="410" width="950" height="430" rx="30" fill="#FFFFFF" stroke="#E2E8F0" stroke-width="1"/><text x="390" y="470" font-family="Inter, Geist, Arial, sans-serif" font-size="26" font-weight="900" fill="#0B1220">Configuration checklist</text><rect x="390" y="510" width="560" height="42" rx="14" fill="#F0FDFA" stroke="#99F6E4" stroke-width="1"/><text x="416" y="537" font-family="Inter, Geist, Arial, sans-serif" font-size="18" font-weight="900" fill="#16A34A">✓</text><text x="450" y="537" font-family="Inter, Geist, Arial, sans-serif" font-size="16" font-weight="750" fill="#0B1220">Personality selected</text><rect x="390" y="568" width="560" height="42" rx="14" fill="#F0FDFA" stroke="#99F6E4" stroke-width="1"/><text x="416" y="595" font-family="Inter, Geist, Arial, sans-serif" font-size="18" font-weight="900" fill="#16A34A">✓</text><text x="450" y="595" font-family="Inter, Geist, Arial, sans-serif" font-size="16" font-weight="750" fill="#0B1220">System prompt reviewed</text><rect x="390" y="626" width="560" height="42" rx="14" fill="#F0FDFA" stroke="#99F6E4" stroke-width="1"/><text x="416" y="653" font-family="Inter, Geist, Arial, sans-serif" font-size="18" font-weight="900" fill="#16A34A">✓</text><text x="450" y="653" font-family="Inter, Geist, Arial, sans-serif" font-size="16" font-weight="750" fill="#0B1220">Emergency flow enabled</text><rect x="390" y="684" width="560" height="42" rx="14" fill="#F6F8FC" stroke="#E2E8F0" stroke-width="1"/><text x="416" y="711" font-family="Inter, Geist, Arial, sans-serif" font-size="18" font-weight="900" fill="#64748B">○</text><text x="450" y="711" font-family="Inter, Geist, Arial, sans-serif" font-size="16" font-weight="750" fill="#0B1220">Knowledge base indexed</text><rect x="390" y="742" width="560" height="42" rx="14" fill="#F6F8FC" stroke="#E2E8F0" stroke-width="1"/><text x="416" y="769" font-family="Inter, Geist, Arial, sans-serif" font-size="18" font-weight="900" fill="#64748B">○</text><text x="450" y="769" font-family="Inter, Geist, Arial, sans-serif" font-size="16" font-weight="750" fill="#0B1220">Appointment rules configured</text><rect x="990" y="520" width="250" height="180" rx="26" fill="#EFF6FF" stroke="#EFF6FF" stroke-width="1"/><text x="1022" y="575" font-family="Inter, Geist, Arial, sans-serif" font-size="18" font-weight="900" fill="#2563EB">Next best action</text><text x="1022" y="620" font-family="Inter, Geist, Arial, sans-serif" font-size="22" font-weight="900" fill="#0B1220">Upload clinic FAQs</text><text x="1022" y="654" font-family="Inter, Geist, Arial, sans-serif" font-size="15" font-weight="600" fill="#64748B">Improve answer quality</text></svg>