<svg width="1440" height="1024" viewBox="0 0 1440 1024" fill="none" xmlns="http://www.w3.org/2000/svg"><rect width="1440" height="1024" fill="#F8FAFC"/><circle cx="1230" cy="120" r="260" fill="#EFF6FF"/><circle cx="120" cy="940" r="260" fill="#F0FDFA"/><text x="72" y="78" font-family="Inter, Arial, sans-serif" font-size="28" font-weight="800" fill="#2563EB">StormeAI</text><text x="72" y="126" font-family="Inter, Arial, sans-serif" font-size="44" font-weight="800" fill="#0F172A">AI Receptionist Settings</text><text x="72" y="164" font-family="Inter, Arial, sans-serif" font-size="18" font-weight="500" fill="#64748B">Personality, prompt, and safety controls</text><rect x="48" y="200" width="260" height="720" rx="28" fill="#FFFFFF" stroke="#E2E8F0"/> <text x="78" y="250" font-family="Inter, Arial, sans-serif" font-size="16" font-weight="700" fill="#64748B">Navigation</text> <rect x="74" y="280" width="208" height="42" rx="14" fill="#EFF6FF" stroke="#2563EB"/><text x="94" y="307" font-family="Inter, Arial, sans-serif" font-size="15" font-weight="700" fill="#2563EB">Dashboard</text><rect x="74" y="338" width="208" height="42" rx="14" fill="#FFF" stroke="#E2E8F0"/><text x="94" y="365" font-family="Inter, Arial, sans-serif" font-size="15" font-weight="700" fill="#64748B">AI Receptionist</text><rect x="74" y="396" width="208" height="42" rx="14" fill="#FFF" stroke="#E2E8F0"/><text x="94" y="423" font-family="Inter, Arial, sans-serif" font-size="15" font-weight="700" fill="#64748B">Knowledge Base</text><rect x="74" y="454" width="208" height="42" rx="14" fill="#FFF" stroke="#E2E8F0"/><text x="94" y="481" font-family="Inter, Arial, sans-serif" font-size="15" font-weight="700" fill="#64748B">Appointments</text><rect x="74" y="512" width="208" height="42" rx="14" fill="#FFF" stroke="#E2E8F0"/><text x="94" y="539" font-family="Inter, Arial, sans-serif" font-size="15" font-weight="700" fill="#64748B">Workflows</text><rect x="74" y="570" width="208" height="42" rx="14" fill="#FFF" stroke="#E2E8F0"/><text x="94" y="597" font-family="Inter, Arial, sans-serif" font-size="15" font-weight="700" fill="#64748B">Billing</text><rect x="350" y="220" width="950" height="680" rx="30" fill="#FFF" stroke="#E2E8F0"/> <text x="390" y="278" font-family="Inter, Arial, sans-serif" font-size="28" font-weight="800" fill="#0F172A">Receptionist profile</text><text x="390" y="340" font-family="Inter, Arial, sans-serif" font-size="14" font-weight="700" fill="#64748B">Name</text><rect x="390" y="360" width="360" height="56" rx="16" fill="#FFF" stroke="#E2E8F0"/><text x="820" y="340" font-family="Inter, Arial, sans-serif" font-size="14" font-weight="700" fill="#64748B">Tone</text><rect x="820" y="360" width="360" height="56" rx="16" fill="#FFF" stroke="#E2E8F0"/><text x="390" y="450" font-family="Inter, Arial, sans-serif" font-size="14" font-weight="700" fill="#64748B">Language</text><rect x="390" y="470" width="360" height="56" rx="16" fill="#FFF" stroke="#E2E8F0"/><text x="820" y="450" font-family="Inter, Arial, sans-serif" font-size="14" font-weight="700" fill="#64748B">Fallback behavior</text><rect x="820" y="470" width="360" height="56" rx="16" fill="#FFF" stroke="#E2E8F0"/> <text x="390" y="590" font-family="Inter, Arial, sans-serif" font-size="18" font-weight="800" fill="#0F172A">System prompt preview</text><rect x="390" y="620" width="820" height="170" rx="20" fill="#F8FAFC" stroke="#E2E8F0"/><text x="420" y="660" font-family="Inter, Arial, sans-serif" font-size="16" font-weight="500" fill="#64748B">You are StormeAI, a chat-only AI receptionist for this clinic...</text><rect x="390" y="820" width="130" height="36" rx="18" fill="#DC2626" opacity="0.12"/><text x="406" y="844" font-family="Inter, Arial, sans-serif" font-size="13" font-weight="700" fill="#DC2626">No diagnosis</text><rect x="540" y="820" width="170" height="36" rx="18" fill="#14B8A6" opacity="0.12"/><text x="556" y="844" font-family="Inter, Arial, sans-serif" font-size="13" font-weight="700" fill="#14B8A6">Appointment-first</text><rect x="730" y="820" width="150" height="36" rx="18" fill="#2563EB" opacity="0.12"/><text x="746" y="844" font-family="Inter, Arial, sans-serif" font-size="13" font-weight="700" fill="#2563EB">Human handoff</text></svg>