<svg width="1440" height="1024" viewBox="0 0 1440 1024" fill="none" xmlns="http://www.w3.org/2000/svg"><defs><filter id="shadow" x="-20%" y="-20%" width="140%" height="140%"><feDropShadow dx="0" dy="18" stdDeviation="18" flood-color="#0F172A" flood-opacity="0.08"/></filter><linearGradient id="hero" x1="0" y1="0" x2="1" y2="1"><stop stop-color="#2563EB"/><stop offset="1" stop-color="#14B8A6"/></linearGradient></defs><rect width="1440" height="1024" fill="#F6F8FC"/><circle cx="1240" cy="90" r="280" fill="#DBEAFE" opacity="0.75"/><circle cx="80" cy="930" r="320" fill="#CCFBF1" opacity="0.5"/><text x="72" y="70" font-family="Inter, Geist, Arial, sans-serif" font-size="28" font-weight="900" fill="#2563EB">StormeAI</text><text x="72" y="118" font-family="Inter, Geist, Arial, sans-serif" font-size="42" font-weight="850" fill="#0B1220">AI Personality &amp; Prompt Configuration</text><text x="72" y="154" font-family="Inter, Geist, Arial, sans-serif" font-size="17" font-weight="500" fill="#64748B">Make the receptionist sound like the clinic</text><rect x="48" y="190" width="272" height="770" rx="30" fill="rgba(255,255,255,.86)" stroke="#E2E8F0" stroke-width="1"/><text x="82" y="242" font-family="Inter, Geist, Arial, sans-serif" font-size="15" font-weight="800" fill="#64748B">Clinic Workspace</text><rect x="76" y="270" width="216" height="42" rx="15" fill="transparent" stroke="transparent" stroke-width="1"/><text x="96" y="297" font-family="Inter, Geist, Arial, sans-serif" font-size="14" font-weight="800" fill="#64748B">Dashboard</text><rect x="76" y="328" width="216" height="42" rx="15" fill="transparent" stroke="transparent" stroke-width="1"/><text x="96" y="355" font-family="Inter, Geist, Arial, sans-serif" font-size="14" font-weight="800" fill="#64748B">AI Receptionist</text><rect x="76" y="386" width="216" height="42" rx="15" fill="#EFF6FF" stroke="#2563EB" stroke-width="1"/><text x="96" y="413" font-family="Inter, Geist, Arial, sans-serif" font-size="14" font-weight="800" fill="#2563EB">Personality</text><rect x="76" y="444" width="216" height="42" rx="15" fill="transparent" stroke="transparent" stroke-width="1"/><text x="96" y="471" font-family="Inter, Geist, Arial, sans-serif" font-size="14" font-weight="800" fill="#64748B">AI Providers</text><rect x="76" y="502" width="216" height="42" rx="15" fill="transparent" stroke="transparent" stroke-width="1"/><text x="96" y="529" font-family="Inter, Geist, Arial, sans-serif" font-size="14" font-weight="800" fill="#64748B">Knowledge Base</text><rect x="76" y="560" width="216" height="42" rx="15" fill="transparent" stroke="transparent" stroke-width="1"/><text x="96" y="587" font-family="Inter, Geist, Arial, sans-serif" font-size="14" font-weight="800" fill="#64748B">Appointments</text><rect x="76" y="618" width="216" height="42" rx="15" fill="transparent" stroke="transparent" stroke-width="1"/><text x="96" y="645" font-family="Inter, Geist, Arial, sans-serif" font-size="14" font-weight="800" fill="#64748B">Workflows</text><rect x="76" y="676" width="216" height="42" rx="15" fill="transparent" stroke="transparent" stroke-width="1"/><text x="96" y="703" font-family="Inter, Geist, Arial, sans-serif" font-size="14" font-weight="800" fill="#64748B">n8n</text><rect x="76" y="734" width="216" height="42" rx="15" fill="transparent" stroke="transparent" stroke-width="1"/><text x="96" y="761" font-family="Inter, Geist, Arial, sans-serif" font-size="14" font-weight="800" fill="#64748B">Billing</text><rect x="76" y="792" width="216" height="42" rx="15" fill="transparent" stroke="transparent" stroke-width="1"/><text x="96" y="819" font-family="Inter, Geist, Arial, sans-serif" font-size="14" font-weight="800" fill="#64748B">Analytics</text><rect x="76" y="850" width="216" height="42" rx="15" fill="transparent" stroke="transparent" stroke-width="1"/><text x="96" y="877" font-family="Inter, Geist, Arial, sans-serif" font-size="14" font-weight="800" fill="#64748B">Safety</text><rect x="350" y="220" width="950" height="690" rx="30" fill="#FFFFFF" stroke="#E2E8F0" stroke-width="1"/><text x="390" y="280" font-family="Inter, Geist, Arial, sans-serif" font-size="28" font-weight="900" fill="#0B1220">Receptionist personality</text><text x="390" y="340" font-family="Inter, Geist, Arial, sans-serif" font-size="13" font-weight="800" fill="#64748B">Receptionist name</text><rect x="390" y="352" width="360" height="52" rx="15" fill="#FFFFFF" stroke="#E2E8F0" stroke-width="1"/><text x="408" y="385" font-family="Inter, Geist, Arial, sans-serif" font-size="15" font-weight="600" fill="#0B1220">Mia</text><text x="820" y="340" font-family="Inter, Geist, Arial, sans-serif" font-size="13" font-weight="800" fill="#64748B">Tone</text><rect x="820" y="352" width="360" height="52" rx="15" fill="#FFFFFF" stroke="#E2E8F0" stroke-width="1"/><text x="838" y="385" font-family="Inter, Geist, Arial, sans-serif" font-size="15" font-weight="600" fill="#0B1220">Warm, professional, concise</text><text x="390" y="450" font-family="Inter, Geist, Arial, sans-serif" font-size="13" font-weight="800" fill="#64748B">Language style</text><rect x="390" y="462" width="790" height="52" rx="15" fill="#FFFFFF" stroke="#E2E8F0" stroke-width="1"/><text x="408" y="495" font-family="Inter, Geist, Arial, sans-serif" font-size="15" font-weight="600" fill="#0B1220">English + Taglish when patient uses Tagalog</text><text x="390" y="580" font-family="Inter, Geist, Arial, sans-serif" font-size="13" font-weight="800" fill="#64748B">Friendliness</text><line x1="390" y1="608" x2="630" y2="608" stroke="#CBD5E1" stroke-width="8"/><line x1="390" y1="608" x2="580" y2="608" stroke="#2563EB" stroke-width="8"/><circle cx="580" cy="608" r="12" fill="#FFF" stroke="#2563EB" stroke-width="4"/><text x="720" y="580" font-family="Inter, Geist, Arial, sans-serif" font-size="13" font-weight="800" fill="#64748B">Conciseness</text><line x1="720" y1="608" x2="960" y2="608" stroke="#CBD5E1" stroke-width="8"/><line x1="720" y1="608" x2="880" y2="608" stroke="#2563EB" stroke-width="8"/><circle cx="880" cy="608" r="12" fill="#FFF" stroke="#2563EB" stroke-width="4"/><text x="1050" y="580" font-family="Inter, Geist, Arial, sans-serif" font-size="13" font-weight="800" fill="#64748B">Formality</text><line x1="1050" y1="608" x2="1290" y2="608" stroke="#CBD5E1" stroke-width="8"/><line x1="1050" y1="608" x2="1170" y2="608" stroke="#2563EB" stroke-width="8"/><circle cx="1170" cy="608" r="12" fill="#FFF" stroke="#2563EB" stroke-width="4"/><text x="390" y="680" font-family="Inter, Geist, Arial, sans-serif" font-size="20" font-weight="900" fill="#0B1220">System prompt builder</text><rect x="390" y="710" width="790" height="120" rx="18" fill="#F6F8FC" stroke="#E2E8F0" stroke-width="1"/><text x="418" y="748" font-family="Inter, Geist, Arial, sans-serif" font-size="15" font-weight="650" fill="#0B1220">You are Mia, StormeAI chat-only receptionist for this clinic.</text><text x="418" y="780" font-family="Inter, Geist, Arial, sans-serif" font-size="15" font-weight="650" fill="#0B1220">Answer FAQs from approved knowledge, collect appointment details, and never diagnose.</text><rect x="1210" y="350" width="58" height="32" rx="16" fill="#2563EB" stroke="#2563EB" stroke-width="1"/><circle cx="1252" cy="366" r="11" fill="#FFF"/><text x="1070" y="372" font-family="Inter, Geist, Arial, sans-serif" font-size="14" font-weight="800" fill="#64748B">Use clinic knowledge only</text><rect x="1210" y="410" width="58" height="32" rx="16" fill="#2563EB" stroke="#2563EB" stroke-width="1"/><circle cx="1252" cy="426" r="11" fill="#FFF"/><text x="1070" y="432" font-family="Inter, Geist, Arial, sans-serif" font-size="14" font-weight="800" fill="#64748B">Offer appointment when relevant</text></svg>