<svg width="1440" height="1024" viewBox="0 0 1440 1024" fill="none" xmlns="http://www.w3.org/2000/svg"><rect width="1440" height="1024" fill="#F8FAFC"/><circle cx="1230" cy="120" r="260" fill="#EFF6FF"/><circle cx="120" cy="940" r="260" fill="#F0FDFA"/><text x="72" y="78" font-family="Inter, Arial, sans-serif" font-size="28" font-weight="800" fill="#2563EB">StormeAI</text><text x="72" y="126" font-family="Inter, Arial, sans-serif" font-size="44" font-weight="800" fill="#0F172A">Knowledge Base</text><text x="72" y="164" font-family="Inter, Arial, sans-serif" font-size="18" font-weight="500" fill="#64748B">Clinic-approved RAG sources</text><rect x="48" y="200" width="260" height="720" rx="28" fill="#FFFFFF" stroke="#E2E8F0"/> <text x="78" y="250" font-family="Inter, Arial, sans-serif" font-size="16" font-weight="700" fill="#64748B">Navigation</text> <rect x="74" y="280" width="208" height="42" rx="14" fill="#EFF6FF" stroke="#2563EB"/><text x="94" y="307" font-family="Inter, Arial, sans-serif" font-size="15" font-weight="700" fill="#2563EB">Dashboard</text><rect x="74" y="338" width="208" height="42" rx="14" fill="#FFF" stroke="#E2E8F0"/><text x="94" y="365" font-family="Inter, Arial, sans-serif" font-size="15" font-weight="700" fill="#64748B">AI Receptionist</text><rect x="74" y="396" width="208" height="42" rx="14" fill="#FFF" stroke="#E2E8F0"/><text x="94" y="423" font-family="Inter, Arial, sans-serif" font-size="15" font-weight="700" fill="#64748B">Knowledge Base</text><rect x="74" y="454" width="208" height="42" rx="14" fill="#FFF" stroke="#E2E8F0"/><text x="94" y="481" font-family="Inter, Arial, sans-serif" font-size="15" font-weight="700" fill="#64748B">Appointments</text><rect x="74" y="512" width="208" height="42" rx="14" fill="#FFF" stroke="#E2E8F0"/><text x="94" y="539" font-family="Inter, Arial, sans-serif" font-size="15" font-weight="700" fill="#64748B">Workflows</text><rect x="74" y="570" width="208" height="42" rx="14" fill="#FFF" stroke="#E2E8F0"/><text x="94" y="597" font-family="Inter, Arial, sans-serif" font-size="15" font-weight="700" fill="#64748B">Billing</text><rect x="350" y="220" width="950" height="110" rx="28" fill="#FFF" stroke="#E2E8F0"/> <text x="390" y="270" font-family="Inter, Arial, sans-serif" font-size="22" font-weight="800" fill="#0F172A">Add FAQs, services, pricing, policies, and documents.</text><rect x="1080" y="250" width="170" height="50" rx="16" fill="#2563EB" stroke="#2563EB"/><text x="1112" y="282" font-family="Inter, Arial, sans-serif" font-size="16" font-weight="800" fill="#FFF">Add source</text><rect x="350" y="370" width="950" height="68" rx="18" fill="#FFF" stroke="#E2E8F0"/> <text x="390" y="412" font-family="Inter, Arial, sans-serif" font-size="18" font-weight="800" fill="#0F172A">Dental Cleaning FAQ</text><rect x="1040" y="386" width="130" height="36" rx="18" fill="#16A34A" opacity="0.12"/><text x="1056" y="410" font-family="Inter, Arial, sans-serif" font-size="13" font-weight="700" fill="#16A34A">Indexed</text><rect x="350" y="458" width="950" height="68" rx="18" fill="#FFF" stroke="#E2E8F0"/> <text x="390" y="500" font-family="Inter, Arial, sans-serif" font-size="18" font-weight="800" fill="#0F172A">Clinic Hours &amp; Location</text><rect x="1040" y="474" width="130" height="36" rx="18" fill="#16A34A" opacity="0.12"/><text x="1056" y="498" font-family="Inter, Arial, sans-serif" font-size="13" font-weight="700" fill="#16A34A">Indexed</text><rect x="350" y="546" width="950" height="68" rx="18" fill="#FFF" stroke="#E2E8F0"/> <text x="390" y="588" font-family="Inter, Arial, sans-serif" font-size="18" font-weight="800" fill="#0F172A">Consultation Fees</text><rect x="1040" y="562" width="130" height="36" rx="18" fill="#16A34A" opacity="0.12"/><text x="1056" y="586" font-family="Inter, Arial, sans-serif" font-size="13" font-weight="700" fill="#16A34A">Indexed</text><rect x="350" y="634" width="950" height="68" rx="18" fill="#FFF" stroke="#E2E8F0"/> <text x="390" y="676" font-family="Inter, Arial, sans-serif" font-size="18" font-weight="800" fill="#0F172A">Pre-visit Instructions</text><rect x="1040" y="650" width="130" height="36" rx="18" fill="#F59E0B" opacity="0.12"/><text x="1056" y="674" font-family="Inter, Arial, sans-serif" font-size="13" font-weight="700" fill="#F59E0B">Needs review</text><rect x="350" y="722" width="950" height="68" rx="18" fill="#FFF" stroke="#E2E8F0"/> <text x="390" y="764" font-family="Inter, Arial, sans-serif" font-size="18" font-weight="800" fill="#0F172A">Doctor Profiles</text><rect x="1040" y="738" width="130" height="36" rx="18" fill="#F59E0B" opacity="0.12"/><text x="1056" y="762" font-family="Inter, Arial, sans-serif" font-size="13" font-weight="700" fill="#F59E0B">Needs review</text></svg>