<svg width="1440" height="1024" viewBox="0 0 1440 1024" fill="none" xmlns="http://www.w3.org/2000/svg"><defs><filter id="shadow" x="-20%" y="-20%" width="140%" height="140%"><feDropShadow dx="0" dy="18" stdDeviation="18" flood-color="#0F172A" flood-opacity="0.08"/></filter><linearGradient id="hero" x1="0" y1="0" x2="1" y2="1"><stop stop-color="#2563EB"/><stop offset="1" stop-color="#14B8A6"/></linearGradient></defs><rect width="1440" height="1024" fill="#F6F8FC"/><circle cx="1240" cy="90" r="280" fill="#DBEAFE" opacity="0.75"/><circle cx="80" cy="930" r="320" fill="#CCFBF1" opacity="0.5"/><text x="72" y="70" font-family="Inter, Geist, Arial, sans-serif" font-size="28" font-weight="900" fill="#2563EB">StormeAI</text><text x="72" y="118" font-family="Inter, Geist, Arial, sans-serif" font-size="42" font-weight="850" fill="#0B1220">AI Provider Configuration</text><text x="72" y="154" font-family="Inter, Geist, Arial, sans-serif" font-size="17" font-weight="500" fill="#64748B">Route between Ollama, OpenAI, and Claude safely</text><rect x="48" y="190" width="272" height="770" rx="30" fill="rgba(255,255,255,.86)" stroke="#E2E8F0" stroke-width="1"/><text x="82" y="242" font-family="Inter, Geist, Arial, sans-serif" font-size="15" font-weight="800" fill="#64748B">Organization Workspace</text><rect x="76" y="270" width="216" height="42" rx="15" fill="transparent" stroke="transparent" stroke-width="1"/><text x="96" y="297" font-family="Inter, Geist, Arial, sans-serif" font-size="14" font-weight="800" fill="#64748B">Dashboard</text><rect x="76" y="328" width="216" height="42" rx="15" fill="transparent" stroke="transparent" stroke-width="1"/><text x="96" y="355" font-family="Inter, Geist, Arial, sans-serif" font-size="14" font-weight="800" fill="#64748B">AI Agent</text><rect x="76" y="386" width="216" height="42" rx="15" fill="transparent" stroke="transparent" stroke-width="1"/><text x="96" y="413" font-family="Inter, Geist, Arial, sans-serif" font-size="14" font-weight="800" fill="#64748B">Personality</text><rect x="76" y="444" width="216" height="42" rx="15" fill="#EFF6FF" stroke="#2563EB" stroke-width="1"/><text x="96" y="471" font-family="Inter, Geist, Arial, sans-serif" font-size="14" font-weight="800" fill="#2563EB">AI Providers</text><rect x="76" y="502" width="216" height="42" rx="15" fill="transparent" stroke="transparent" stroke-width="1"/><text x="96" y="529" font-family="Inter, Geist, Arial, sans-serif" font-size="14" font-weight="800" fill="#64748B">Knowledge Base</text><rect x="76" y="560" width="216" height="42" rx="15" fill="transparent" stroke="transparent" stroke-width="1"/><text x="96" y="587" font-family="Inter, Geist, Arial, sans-serif" font-size="14" font-weight="800" fill="#64748B">Appointments</text><rect x="76" y="618" width="216" height="42" rx="15" fill="transparent" stroke="transparent" stroke-width="1"/><text x="96" y="645" font-family="Inter, Geist, Arial, sans-serif" font-size="14" font-weight="800" fill="#64748B">Workflows</text><rect x="76" y="676" width="216" height="42" rx="15" fill="transparent" stroke="transparent" stroke-width="1"/><text x="96" y="703" font-family="Inter, Geist, Arial, sans-serif" font-size="14" font-weight="800" fill="#64748B">n8n</text><rect x="76" y="734" width="216" height="42" rx="15" fill="transparent" stroke="transparent" stroke-width="1"/><text x="96" y="761" font-family="Inter, Geist, Arial, sans-serif" font-size="14" font-weight="800" fill="#64748B">Billing</text><rect x="76" y="792" width="216" height="42" rx="15" fill="transparent" stroke="transparent" stroke-width="1"/><text x="96" y="819" font-family="Inter, Geist, Arial, sans-serif" font-size="14" font-weight="800" fill="#64748B">Analytics</text><rect x="76" y="850" width="216" height="42" rx="15" fill="transparent" stroke="transparent" stroke-width="1"/><text x="96" y="877" font-family="Inter, Geist, Arial, sans-serif" font-size="14" font-weight="800" fill="#64748B">Safety</text><rect x="350" y="230" width="285" height="210" rx="28" fill="#FFFFFF" stroke="#16A34A" stroke-width="2"/><text x="385" y="286" font-family="Inter, Geist, Arial, sans-serif" font-size="22" font-weight="900" fill="#0B1220">Ollama qwen2.5:7b</text><rect x="385" y="310" width="100" height="34" rx="17" fill="#16A34A" opacity="0.12"/><text x="400" y="332" font-family="Inter, Arial" font-size="12" font-weight="800" fill="#16A34A">DEFAULT</text><text x="385" y="370" font-family="Inter, Geist, Arial, sans-serif" font-size="15" font-weight="600" fill="#64748B">Local computer default</text><rect x="545" y="385" width="58" height="32" rx="16" fill="#2563EB" stroke="#2563EB" stroke-width="1"/><circle cx="587" cy="401" r="11" fill="#FFF"/><rect x="665" y="230" width="285" height="210" rx="28" fill="#FFFFFF" stroke="#E2E8F0" stroke-width="1"/><text x="700" y="286" font-family="Inter, Geist, Arial, sans-serif" font-size="22" font-weight="900" fill="#0B1220">OpenAI</text><rect x="700" y="310" width="100" height="34" rx="17" fill="#2563EB" opacity="0.12"/><text x="715" y="332" font-family="Inter, Arial" font-size="12" font-weight="800" fill="#2563EB">OPTIONAL</text><text x="700" y="370" font-family="Inter, Geist, Arial, sans-serif" font-size="15" font-weight="600" fill="#64748B">Cloud fallback/provider</text><rect x="860" y="385" width="58" height="32" rx="16" fill="#CBD5E1" stroke="#CBD5E1" stroke-width="1"/><circle cx="876" cy="401" r="11" fill="#FFF"/><rect x="980" y="230" width="285" height="210" rx="28" fill="#FFFFFF" stroke="#E2E8F0" stroke-width="1"/><text x="1015" y="286" font-family="Inter, Geist, Arial, sans-serif" font-size="22" font-weight="900" fill="#0B1220">Claude</text><rect x="1015" y="310" width="100" height="34" rx="17" fill="#2563EB" opacity="0.12"/><text x="1030" y="332" font-family="Inter, Arial" font-size="12" font-weight="800" fill="#2563EB">OPTIONAL</text><text x="1015" y="370" font-family="Inter, Geist, Arial, sans-serif" font-size="15" font-weight="600" fill="#64748B">Premium reasoning fallback</text><rect x="1175" y="385" width="58" height="32" rx="16" fill="#CBD5E1" stroke="#CBD5E1" stroke-width="1"/><circle cx="1191" cy="401" r="11" fill="#FFF"/><rect x="350" y="500" width="950" height="330" rx="30" fill="#FFFFFF" stroke="#E2E8F0" stroke-width="1"/><text x="390" y="560" font-family="Inter, Geist, Arial, sans-serif" font-size="26" font-weight="900" fill="#0B1220">Routing rules</text><rect x="390" y="600" width="790" height="38" rx="12" fill="#F6F8FC" stroke="#E2E8F0" stroke-width="1"/><text x="415" y="625" font-family="Inter, Geist, Arial, sans-serif" font-size="15" font-weight="750" fill="#0B1220">Use Ollama for normal FAQ/chat</text><rect x="390" y="652" width="790" height="38" rx="12" fill="#F6F8FC" stroke="#E2E8F0" stroke-width="1"/><text x="415" y="677" font-family="Inter, Geist, Arial, sans-serif" font-size="15" font-weight="750" fill="#0B1220">Use cloud provider for long/complex RAG answers</text><rect x="390" y="704" width="790" height="38" rx="12" fill="#F6F8FC" stroke="#E2E8F0" stroke-width="1"/><text x="415" y="729" font-family="Inter, Geist, Arial, sans-serif" font-size="15" font-weight="750" fill="#0B1220">Fallback to human handoff when confidence is low</text><rect x="390" y="756" width="790" height="38" rx="12" fill="#F6F8FC" stroke="#E2E8F0" stroke-width="1"/><text x="415" y="781" font-family="Inter, Geist, Arial, sans-serif" font-size="15" font-weight="750" fill="#0B1220">Log provider, latency, and estimated cost</text></svg>