<svg width="1440" height="1024" viewBox="0 0 1440 1024" fill="none" xmlns="http://www.w3.org/2000/svg"><rect width="1440" height="1024" fill="#F8FAFC"/><circle cx="1230" cy="120" r="260" fill="#EFF6FF"/><circle cx="120" cy="940" r="260" fill="#F0FDFA"/><text x="72" y="78" font-family="Inter, Arial, sans-serif" font-size="28" font-weight="800" fill="#2563EB">StormeAI</text><text x="72" y="126" font-family="Inter, Arial, sans-serif" font-size="44" font-weight="800" fill="#0F172A">Appointments</text><text x="72" y="164" font-family="Inter, Arial, sans-serif" font-size="18" font-weight="500" fill="#64748B">Manage booking requests and confirmed schedules</text><rect x="48" y="200" width="260" height="720" rx="28" fill="#FFFFFF" stroke="#E2E8F0"/> <text x="78" y="250" font-family="Inter, Arial, sans-serif" font-size="16" font-weight="700" fill="#64748B">Navigation</text> <rect x="74" y="280" width="208" height="42" rx="14" fill="#EFF6FF" stroke="#2563EB"/><text x="94" y="307" font-family="Inter, Arial, sans-serif" font-size="15" font-weight="700" fill="#2563EB">Dashboard</text><rect x="74" y="338" width="208" height="42" rx="14" fill="#FFF" stroke="#E2E8F0"/><text x="94" y="365" font-family="Inter, Arial, sans-serif" font-size="15" font-weight="700" fill="#64748B">AI Receptionist</text><rect x="74" y="396" width="208" height="42" rx="14" fill="#FFF" stroke="#E2E8F0"/><text x="94" y="423" font-family="Inter, Arial, sans-serif" font-size="15" font-weight="700" fill="#64748B">Knowledge Base</text><rect x="74" y="454" width="208" height="42" rx="14" fill="#FFF" stroke="#E2E8F0"/><text x="94" y="481" font-family="Inter, Arial, sans-serif" font-size="15" font-weight="700" fill="#64748B">Appointments</text><rect x="74" y="512" width="208" height="42" rx="14" fill="#FFF" stroke="#E2E8F0"/><text x="94" y="539" font-family="Inter, Arial, sans-serif" font-size="15" font-weight="700" fill="#64748B">Workflows</text><rect x="74" y="570" width="208" height="42" rx="14" fill="#FFF" stroke="#E2E8F0"/><text x="94" y="597" font-family="Inter, Arial, sans-serif" font-size="15" font-weight="700" fill="#64748B">Billing</text><rect x="350" y="220" width="950" height="90" rx="26" fill="#FFF" stroke="#E2E8F0"/> <text x="390" y="275" font-family="Inter, Arial, sans-serif" font-size="28" font-weight="800" fill="#0F172A">Appointments</text><rect x="1080" y="240" width="170" height="50" rx="16" fill="#2563EB" stroke="#2563EB"/><text x="1115" y="272" font-family="Inter, Arial, sans-serif" font-size="16" font-weight="800" fill="#FFF">New booking</text><rect x="350" y="345" width="150" height="36" rx="18" fill="#F59E0B" opacity="0.12"/><text x="366" y="369" font-family="Inter, Arial, sans-serif" font-size="13" font-weight="700" fill="#F59E0B">Requested</text><rect x="530" y="345" width="150" height="36" rx="18" fill="#16A34A" opacity="0.12"/><text x="546" y="369" font-family="Inter, Arial, sans-serif" font-size="13" font-weight="700" fill="#16A34A">Confirmed</text><rect x="710" y="345" width="150" height="36" rx="18" fill="#2563EB" opacity="0.12"/><text x="726" y="369" font-family="Inter, Arial, sans-serif" font-size="13" font-weight="700" fill="#2563EB">Rescheduled</text><rect x="890" y="345" width="150" height="36" rx="18" fill="#DC2626" opacity="0.12"/><text x="906" y="369" font-family="Inter, Arial, sans-serif" font-size="13" font-weight="700" fill="#DC2626">Canceled</text> <rect x="350" y="420" width="950" height="72" rx="20" fill="#FFF" stroke="#E2E8F0"/> <text x="390" y="465" font-family="Inter, Arial, sans-serif" font-size="18" font-weight="750" fill="#0F172A">Maria Santos — Dental Cleaning — Tomorrow 10:00 AM</text><rect x="350" y="512" width="950" height="72" rx="20" fill="#FFF" stroke="#E2E8F0"/> <text x="390" y="557" font-family="Inter, Arial, sans-serif" font-size="18" font-weight="750" fill="#0F172A">John Cruz — Derma Consultation — Friday 2:00 PM</text><rect x="350" y="604" width="950" height="72" rx="20" fill="#FFF" stroke="#E2E8F0"/> <text x="390" y="649" font-family="Inter, Arial, sans-serif" font-size="18" font-weight="750" fill="#0F172A">Ana Reyes — Lab Test — Monday 8:00 AM</text><rect x="350" y="696" width="950" height="72" rx="20" fill="#FFF" stroke="#E2E8F0"/> <text x="390" y="741" font-family="Inter, Arial, sans-serif" font-size="18" font-weight="750" fill="#0F172A">Carlo Dela Cruz — Reschedule Request</text></svg>