<svg width="1440" height="1024" viewBox="0 0 1440 1024" fill="none" xmlns="http://www.w3.org/2000/svg"><defs><filter id="shadow" x="-20%" y="-20%" width="140%" height="140%"><feDropShadow dx="0" dy="18" stdDeviation="18" flood-color="#0F172A" flood-opacity="0.08"/></filter><linearGradient id="hero" x1="0" y1="0" x2="1" y2="1"><stop stop-color="#2563EB"/><stop offset="1" stop-color="#14B8A6"/></linearGradient></defs><rect width="1440" height="1024" fill="#F6F8FC"/><circle cx="1240" cy="90" r="280" fill="#DBEAFE" opacity="0.75"/><circle cx="80" cy="930" r="320" fill="#CCFBF1" opacity="0.5"/><text x="72" y="70" font-family="Inter, Geist, Arial, sans-serif" font-size="28" font-weight="900" fill="#2563EB">StormeAI</text><text x="72" y="118" font-family="Inter, Geist, Arial, sans-serif" font-size="42" font-weight="850" fill="#0B1220">Knowledge Base &amp; RAG Sources</text><text x="72" y="154" font-family="Inter, Geist, Arial, sans-serif" font-size="17" font-weight="500" fill="#64748B">Clinic-approved answers, documents, and knowledge gaps</text><rect x="48" y="190" width="272" height="770" rx="30" fill="rgba(255,255,255,.86)" stroke="#E2E8F0" stroke-width="1"/><text x="82" y="242" font-family="Inter, Geist, Arial, sans-serif" font-size="15" font-weight="800" fill="#64748B">Clinic Workspace</text><rect x="76" y="270" width="216" height="42" rx="15" fill="transparent" stroke="transparent" stroke-width="1"/><text x="96" y="297" font-family="Inter, Geist, Arial, sans-serif" font-size="14" font-weight="800" fill="#64748B">Dashboard</text><rect x="76" y="328" width="216" height="42" rx="15" fill="transparent" stroke="transparent" stroke-width="1"/><text x="96" y="355" font-family="Inter, Geist, Arial, sans-serif" font-size="14" font-weight="800" fill="#64748B">AI Receptionist</text><rect x="76" y="386" width="216" height="42" rx="15" fill="transparent" stroke="transparent" stroke-width="1"/><text x="96" y="413" font-family="Inter, Geist, Arial, sans-serif" font-size="14" font-weight="800" fill="#64748B">Personality</text><rect x="76" y="444" width="216" height="42" rx="15" fill="transparent" stroke="transparent" stroke-width="1"/><text x="96" y="471" font-family="Inter, Geist, Arial, sans-serif" font-size="14" font-weight="800" fill="#64748B">AI Providers</text><rect x="76" y="502" width="216" height="42" rx="15" fill="#EFF6FF" stroke="#2563EB" stroke-width="1"/><text x="96" y="529" font-family="Inter, Geist, Arial, sans-serif" font-size="14" font-weight="800" fill="#2563EB">Knowledge Base</text><rect x="76" y="560" width="216" height="42" rx="15" fill="transparent" stroke="transparent" stroke-width="1"/><text x="96" y="587" font-family="Inter, Geist, Arial, sans-serif" font-size="14" font-weight="800" fill="#64748B">Appointments</text><rect x="76" y="618" width="216" height="42" rx="15" fill="transparent" stroke="transparent" stroke-width="1"/><text x="96" y="645" font-family="Inter, Geist, Arial, sans-serif" font-size="14" font-weight="800" fill="#64748B">Workflows</text><rect x="76" y="676" width="216" height="42" rx="15" fill="transparent" stroke="transparent" stroke-width="1"/><text x="96" y="703" font-family="Inter, Geist, Arial, sans-serif" font-size="14" font-weight="800" fill="#64748B">n8n</text><rect x="76" y="734" width="216" height="42" rx="15" fill="transparent" stroke="transparent" stroke-width="1"/><text x="96" y="761" font-family="Inter, Geist, Arial, sans-serif" font-size="14" font-weight="800" fill="#64748B">Billing</text><rect x="76" y="792" width="216" height="42" rx="15" fill="transparent" stroke="transparent" stroke-width="1"/><text x="96" y="819" font-family="Inter, Geist, Arial, sans-serif" font-size="14" font-weight="800" fill="#64748B">Analytics</text><rect x="76" y="850" width="216" height="42" rx="15" fill="transparent" stroke="transparent" stroke-width="1"/><text x="96" y="877" font-family="Inter, Geist, Arial, sans-serif" font-size="14" font-weight="800" fill="#64748B">Safety</text><rect x="350" y="220" width="950" height="120" rx="30" fill="#FFFFFF" stroke="#E2E8F0" stroke-width="1"/><text x="390" y="275" font-family="Inter, Geist, Arial, sans-serif" font-size="28" font-weight="900" fill="#0B1220">Sources</text><rect x="1080" y="252" width="170" height="52" rx="16" fill="#2563EB" stroke="#2563EB" stroke-width="1"/><text x="1108" y="285" font-family="Inter, Geist, Arial, sans-serif" font-size="16" font-weight="800" fill="#FFF">Add source</text><rect x="350" y="380" width="950" height="66" rx="18" fill="#FFFFFF" stroke="#E2E8F0" stroke-width="1"/><text x="390" y="422" font-family="Inter, Geist, Arial, sans-serif" font-size="18" font-weight="800" fill="#0B1220">FAQ: Services and prices</text><rect x="1050" y="396" width="105" height="34" rx="17" fill="#16A34A" opacity="0.12"/><text x="1065" y="418" font-family="Inter, Arial" font-size="12" font-weight="800" fill="#16A34A">Indexed</text><rect x="350" y="466" width="950" height="66" rx="18" fill="#FFFFFF" stroke="#E2E8F0" stroke-width="1"/><text x="390" y="508" font-family="Inter, Geist, Arial, sans-serif" font-size="18" font-weight="800" fill="#0B1220">PDF: Patient preparation guide</text><rect x="1050" y="482" width="105" height="34" rx="17" fill="#16A34A" opacity="0.12"/><text x="1065" y="504" font-family="Inter, Arial" font-size="12" font-weight="800" fill="#16A34A">Indexed</text><rect x="350" y="552" width="950" height="66" rx="18" fill="#FFFFFF" stroke="#E2E8F0" stroke-width="1"/><text x="390" y="594" font-family="Inter, Geist, Arial, sans-serif" font-size="18" font-weight="800" fill="#0B1220">Page: Clinic hours and location</text><rect x="1050" y="568" width="105" height="34" rx="17" fill="#16A34A" opacity="0.12"/><text x="1065" y="590" font-family="Inter, Arial" font-size="12" font-weight="800" fill="#16A34A">Indexed</text><rect x="350" y="638" width="950" height="66" rx="18" fill="#FFFFFF" stroke="#E2E8F0" stroke-width="1"/><text x="390" y="680" font-family="Inter, Geist, Arial, sans-serif" font-size="18" font-weight="800" fill="#0B1220">Doctor profile: Dr. Santos</text><rect x="1050" y="654" width="105" height="34" rx="17" fill="#16A34A" opacity="0.12"/><text x="1065" y="676" font-family="Inter, Arial" font-size="12" font-weight="800" fill="#16A34A">Indexed</text><rect x="350" y="724" width="950" height="66" rx="18" fill="#FFFFFF" stroke="#FDE68A" stroke-width="1"/><text x="390" y="766" font-family="Inter, Geist, Arial, sans-serif" font-size="18" font-weight="800" fill="#0B1220">Knowledge gap: HMO coverage</text><rect x="1050" y="740" width="105" height="34" rx="17" fill="#F59E0B" opacity="0.12"/><text x="1065" y="762" font-family="Inter, Arial" font-size="12" font-weight="800" fill="#F59E0B">Review</text><rect x="350" y="835" width="950" height="68" rx="22" fill="#EFF6FF" stroke="#EFF6FF" stroke-width="1"/><text x="390" y="878" font-family="Inter, Geist, Arial, sans-serif" font-size="16" font-weight="800" fill="#2563EB">RAG setting: answer only from approved clinic sources unless general admin guidance is safe.</text></svg>