<svg width="1440" height="1024" viewBox="0 0 1440 1024" fill="none" xmlns="http://www.w3.org/2000/svg"><rect width="1440" height="1024" fill="#F8FAFC"/><circle cx="1230" cy="120" r="260" fill="#EFF6FF"/><circle cx="120" cy="940" r="260" fill="#F0FDFA"/><text x="72" y="78" font-family="Inter, Arial, sans-serif" font-size="28" font-weight="800" fill="#2563EB">StormeAI</text><text x="72" y="126" font-family="Inter, Arial, sans-serif" font-size="44" font-weight="800" fill="#0F172A">Patient Chat Widget</text><text x="72" y="164" font-family="Inter, Arial, sans-serif" font-size="18" font-weight="500" fill="#64748B">Website chat experience for patients</text><rect x="120" y="220" width="760" height="560" rx="34" fill="#FFF" stroke="#E2E8F0"/> <text x="170" y="285" font-family="Inter, Arial, sans-serif" font-size="28" font-weight="800" fill="#0F172A">Clinic Website</text><text x="170" y="330" font-family="Inter, Arial, sans-serif" font-size="18" font-weight="500" fill="#64748B">Main website content area with floating chat widget.</text><rect x="960" y="190" width="360" height="680" rx="34" fill="#FFF" stroke="#E2E8F0"/> <text x="1000" y="250" font-family="Inter, Arial, sans-serif" font-size="21" font-weight="800" fill="#0F172A">StormeAI Receptionist</text><rect x="1000" y="270" width="110" height="36" rx="18" fill="#16A34A" opacity="0.12"/><text x="1016" y="294" font-family="Inter, Arial, sans-serif" font-size="13" font-weight="700" fill="#16A34A">ONLINE</text><rect x="1000" y="340" width="230" height="64" rx="20" fill="#EFF6FF" stroke="#EFF6FF"/><text x="1024" y="378" font-family="Inter, Arial, sans-serif" font-size="15" font-weight="600" fill="#0F172A">Hi, are you open tomorrow?</text><rect x="1035" y="430" width="245" height="96" rx="20" fill="#F0FDFA" stroke="#F0FDFA"/><text x="1058" y="462" font-family="Inter, Arial, sans-serif" font-size="14" font-weight="600" fill="#0F172A">Yes, we are open 9 AM–5 PM.</text><text x="1058" y="490" font-family="Inter, Arial, sans-serif" font-size="14" font-weight="600" fill="#0F172A">Would you like to book?</text><rect x="1000" y="770" width="280" height="52" rx="18" fill="#FFF" stroke="#E2E8F0"/> <text x="1024" y="803" font-family="Inter, Arial, sans-serif" font-size="15" font-weight="500" fill="#64748B">Type your message...</text></svg>