<svg width="1440" height="1024" viewBox="0 0 1440 1024" fill="none" xmlns="http://www.w3.org/2000/svg"><defs><filter id="shadow" x="-20%" y="-20%" width="140%" height="140%"><feDropShadow dx="0" dy="18" stdDeviation="18" flood-color="#0F172A" flood-opacity="0.08"/></filter><linearGradient id="hero" x1="0" y1="0" x2="1" y2="1"><stop stop-color="#2563EB"/><stop offset="1" stop-color="#14B8A6"/></linearGradient></defs><rect width="1440" height="1024" fill="#F6F8FC"/><circle cx="1240" cy="90" r="280" fill="#DBEAFE" opacity="0.75"/><circle cx="80" cy="930" r="320" fill="#CCFBF1" opacity="0.5"/><text x="72" y="70" font-family="Inter, Geist, Arial, sans-serif" font-size="28" font-weight="900" fill="#2563EB">StormeAI</text><text x="72" y="118" font-family="Inter, Geist, Arial, sans-serif" font-size="42" font-weight="850" fill="#0B1220">Appointment Scheduling Configuration</text><text x="72" y="154" font-family="Inter, Geist, Arial, sans-serif" font-size="17" font-weight="500" fill="#64748B">Control services, providers, slots, and booking rules</text><rect x="48" y="190" width="272" height="770" rx="30" fill="rgba(255,255,255,.86)" stroke="#E2E8F0" stroke-width="1"/><text x="82" y="242" font-family="Inter, Geist, Arial, sans-serif" font-size="15" font-weight="800" fill="#64748B">Clinic Workspace</text><rect x="76" y="270" width="216" height="42" rx="15" fill="transparent" stroke="transparent" stroke-width="1"/><text x="96" y="297" font-family="Inter, Geist, Arial, sans-serif" font-size="14" font-weight="800" fill="#64748B">Dashboard</text><rect x="76" y="328" width="216" height="42" rx="15" fill="transparent" stroke="transparent" stroke-width="1"/><text x="96" y="355" font-family="Inter, Geist, Arial, sans-serif" font-size="14" font-weight="800" fill="#64748B">AI Receptionist</text><rect x="76" y="386" width="216" height="42" rx="15" fill="transparent" stroke="transparent" stroke-width="1"/><text x="96" y="413" font-family="Inter, Geist, Arial, sans-serif" font-size="14" font-weight="800" fill="#64748B">Personality</text><rect x="76" y="444" width="216" height="42" rx="15" fill="transparent" stroke="transparent" stroke-width="1"/><text x="96" y="471" font-family="Inter, Geist, Arial, sans-serif" font-size="14" font-weight="800" fill="#64748B">AI Providers</text><rect x="76" y="502" width="216" height="42" rx="15" fill="transparent" stroke="transparent" stroke-width="1"/><text x="96" y="529" font-family="Inter, Geist, Arial, sans-serif" font-size="14" font-weight="800" fill="#64748B">Knowledge Base</text><rect x="76" y="560" width="216" height="42" rx="15" fill="#EFF6FF" stroke="#2563EB" stroke-width="1"/><text x="96" y="587" font-family="Inter, Geist, Arial, sans-serif" font-size="14" font-weight="800" fill="#2563EB">Appointments</text><rect x="76" y="618" width="216" height="42" rx="15" fill="transparent" stroke="transparent" stroke-width="1"/><text x="96" y="645" font-family="Inter, Geist, Arial, sans-serif" font-size="14" font-weight="800" fill="#64748B">Workflows</text><rect x="76" y="676" width="216" height="42" rx="15" fill="transparent" stroke="transparent" stroke-width="1"/><text x="96" y="703" font-family="Inter, Geist, Arial, sans-serif" font-size="14" font-weight="800" fill="#64748B">n8n</text><rect x="76" y="734" width="216" height="42" rx="15" fill="transparent" stroke="transparent" stroke-width="1"/><text x="96" y="761" font-family="Inter, Geist, Arial, sans-serif" font-size="14" font-weight="800" fill="#64748B">Billing</text><rect x="76" y="792" width="216" height="42" rx="15" fill="transparent" stroke="transparent" stroke-width="1"/><text x="96" y="819" font-family="Inter, Geist, Arial, sans-serif" font-size="14" font-weight="800" fill="#64748B">Analytics</text><rect x="76" y="850" width="216" height="42" rx="15" fill="transparent" stroke="transparent" stroke-width="1"/><text x="96" y="877" font-family="Inter, Geist, Arial, sans-serif" font-size="14" font-weight="800" fill="#64748B">Safety</text><rect x="350" y="220" width="450" height="300" rx="30" fill="#FFFFFF" stroke="#E2E8F0" stroke-width="1"/><text x="390" y="280" font-family="Inter, Geist, Arial, sans-serif" font-size="26" font-weight="900" fill="#0B1220">Services</text><rect x="390" y="320" width="350" height="42" rx="14" fill="#F6F8FC" stroke="#E2E8F0" stroke-width="1"/><text x="410" y="347" font-family="Inter, Geist, Arial, sans-serif" font-size="15" font-weight="750" fill="#0B1220">Dental cleaning • 45 min</text><rect x="390" y="378" width="350" height="42" rx="14" fill="#F6F8FC" stroke="#E2E8F0" stroke-width="1"/><text x="410" y="405" font-family="Inter, Geist, Arial, sans-serif" font-size="15" font-weight="750" fill="#0B1220">Consultation • 30 min</text><rect x="390" y="436" width="350" height="42" rx="14" fill="#F6F8FC" stroke="#E2E8F0" stroke-width="1"/><text x="410" y="463" font-family="Inter, Geist, Arial, sans-serif" font-size="15" font-weight="750" fill="#0B1220">Extraction assessment • 30 min</text><rect x="850" y="220" width="450" height="300" rx="30" fill="#FFFFFF" stroke="#E2E8F0" stroke-width="1"/><text x="890" y="280" font-family="Inter, Geist, Arial, sans-serif" font-size="26" font-weight="900" fill="#0B1220">Availability rules</text><rect x="890" y="320" width="350" height="42" rx="14" fill="#F6F8FC" stroke="#E2E8F0" stroke-width="1"/><text x="910" y="347" font-family="Inter, Geist, Arial, sans-serif" font-size="15" font-weight="750" fill="#0B1220">Mon–Fri • 9:00 AM–5:00 PM</text><rect x="890" y="378" width="350" height="42" rx="14" fill="#F6F8FC" stroke="#E2E8F0" stroke-width="1"/><text x="910" y="405" font-family="Inter, Geist, Arial, sans-serif" font-size="15" font-weight="750" fill="#0B1220">Lunch block • 12:00–1:00 PM</text><rect x="890" y="436" width="350" height="42" rx="14" fill="#F6F8FC" stroke="#E2E8F0" stroke-width="1"/><text x="910" y="463" font-family="Inter, Geist, Arial, sans-serif" font-size="15" font-weight="750" fill="#0B1220">Staff confirms first booking</text><rect x="350" y="560" width="950" height="260" rx="30" fill="#FFFFFF" stroke="#E2E8F0" stroke-width="1"/><text x="390" y="620" font-family="Inter, Geist, Arial, sans-serif" font-size="26" font-weight="900" fill="#0B1220">Chat booking behavior</text><rect x="390" y="655" width="58" height="32" rx="16" fill="#2563EB" stroke="#2563EB" stroke-width="1"/><circle cx="432" cy="671" r="11" fill="#FFF"/><text x="470" y="678" font-family="Inter, Geist, Arial, sans-serif" font-size="16" font-weight="750" fill="#0B1220">Collect name, phone/email, service, preferred time</text><rect x="390" y="699" width="58" height="32" rx="16" fill="#2563EB" stroke="#2563EB" stroke-width="1"/><circle cx="432" cy="715" r="11" fill="#FFF"/><text x="470" y="722" font-family="Inter, Geist, Arial, sans-serif" font-size="16" font-weight="750" fill="#0B1220">Create requested appointment, not confirmed, by default</text><rect x="390" y="743" width="58" height="32" rx="16" fill="#2563EB" stroke="#2563EB" stroke-width="1"/><circle cx="432" cy="759" r="11" fill="#FFF"/><text x="470" y="766" font-family="Inter, Geist, Arial, sans-serif" font-size="16" font-weight="750" fill="#0B1220">Send Resend confirmation after staff approval</text><rect x="390" y="787" width="58" height="32" rx="16" fill="#2563EB" stroke="#2563EB" stroke-width="1"/><circle cx="432" cy="803" r="11" fill="#FFF"/><text x="470" y="810" font-family="Inter, Geist, Arial, sans-serif" font-size="16" font-weight="750" fill="#0B1220">Trigger n8n appointment.created workflow</text></svg>