<svg width="1440" height="1024" viewBox="0 0 1440 1024" fill="none" xmlns="http://www.w3.org/2000/svg"><rect width="1440" height="1024" fill="#F8FAFC"/><circle cx="1230" cy="120" r="260" fill="#EFF6FF"/><circle cx="120" cy="940" r="260" fill="#F0FDFA"/><text x="72" y="78" font-family="Inter, Arial, sans-serif" font-size="28" font-weight="800" fill="#2563EB">StormeAI</text><text x="72" y="126" font-family="Inter, Arial, sans-serif" font-size="44" font-weight="800" fill="#0F172A">Workflow Builder</text><text x="72" y="164" font-family="Inter, Arial, sans-serif" font-size="18" font-weight="500" fill="#64748B">React Flow control for chat automations</text><rect x="48" y="200" width="260" height="720" rx="28" fill="#FFFFFF" stroke="#E2E8F0"/> <text x="78" y="250" font-family="Inter, Arial, sans-serif" font-size="16" font-weight="700" fill="#64748B">Navigation</text> <rect x="74" y="280" width="208" height="42" rx="14" fill="#EFF6FF" stroke="#2563EB"/><text x="94" y="307" font-family="Inter, Arial, sans-serif" font-size="15" font-weight="700" fill="#2563EB">Dashboard</text><rect x="74" y="338" width="208" height="42" rx="14" fill="#FFF" stroke="#E2E8F0"/><text x="94" y="365" font-family="Inter, Arial, sans-serif" font-size="15" font-weight="700" fill="#64748B">AI Receptionist</text><rect x="74" y="396" width="208" height="42" rx="14" fill="#FFF" stroke="#E2E8F0"/><text x="94" y="423" font-family="Inter, Arial, sans-serif" font-size="15" font-weight="700" fill="#64748B">Knowledge Base</text><rect x="74" y="454" width="208" height="42" rx="14" fill="#FFF" stroke="#E2E8F0"/><text x="94" y="481" font-family="Inter, Arial, sans-serif" font-size="15" font-weight="700" fill="#64748B">Appointments</text><rect x="74" y="512" width="208" height="42" rx="14" fill="#FFF" stroke="#E2E8F0"/><text x="94" y="539" font-family="Inter, Arial, sans-serif" font-size="15" font-weight="700" fill="#64748B">Workflows</text><rect x="74" y="570" width="208" height="42" rx="14" fill="#FFF" stroke="#E2E8F0"/><text x="94" y="597" font-family="Inter, Arial, sans-serif" font-size="15" font-weight="700" fill="#64748B">Billing</text><rect x="350" y="220" width="950" height="660" rx="30" fill="#FFF" stroke="#E2E8F0"/> <text x="390" y="278" font-family="Inter, Arial, sans-serif" font-size="28" font-weight="800" fill="#0F172A">Appointment workflow</text><rect x="430" y="350" width="190" height="74" rx="20" fill="#EFF6FF" stroke="#E2E8F0"/><text x="462" y="395" font-family="Inter, Arial, sans-serif" font-size="16" font-weight="800" fill="#0F172A">Greeting</text><rect x="680" y="350" width="190" height="74" rx="20" fill="#F0FDFA" stroke="#E2E8F0"/><text x="712" y="395" font-family="Inter, Arial, sans-serif" font-size="16" font-weight="800" fill="#0F172A">FAQ Lookup</text><rect x="930" y="350" width="190" height="74" rx="20" fill="#FFF7ED" stroke="#E2E8F0"/><text x="962" y="395" font-family="Inter, Arial, sans-serif" font-size="16" font-weight="800" fill="#0F172A">Book Appointment</text><rect x="430" y="530" width="190" height="74" rx="20" fill="#EFF6FF" stroke="#E2E8F0"/><text x="462" y="575" font-family="Inter, Arial, sans-serif" font-size="16" font-weight="800" fill="#0F172A">Send Email</text><rect x="680" y="530" width="190" height="74" rx="20" fill="#F0FDFA" stroke="#E2E8F0"/><text x="712" y="575" font-family="Inter, Arial, sans-serif" font-size="16" font-weight="800" fill="#0F172A">Trigger n8n</text><rect x="930" y="530" width="190" height="74" rx="20" fill="#FEF2F2" stroke="#E2E8F0"/><text x="962" y="575" font-family="Inter, Arial, sans-serif" font-size="16" font-weight="800" fill="#0F172A">Human Handoff</text> <text x="620" y="470" font-family="Inter, Arial, sans-serif" font-size="38" font-weight="700" fill="#64748B">→</text><text x="870" y="470" font-family="Inter, Arial, sans-serif" font-size="38" font-weight="700" fill="#64748B">→</text><text x="620" y="650" font-family="Inter, Arial, sans-serif" font-size="38" font-weight="700" fill="#64748B">→</text><text x="870" y="650" font-family="Inter, Arial, sans-serif" font-size="38" font-weight="700" fill="#64748B">→</text></svg>