<svg width="1440" height="1024" viewBox="0 0 1440 1024" fill="none" xmlns="http://www.w3.org/2000/svg"><defs><filter id="shadow" x="-20%" y="-20%" width="140%" height="140%"><feDropShadow dx="0" dy="18" stdDeviation="18" flood-color="#0F172A" flood-opacity="0.08"/></filter><linearGradient id="hero" x1="0" y1="0" x2="1" y2="1"><stop stop-color="#2563EB"/><stop offset="1" stop-color="#14B8A6"/></linearGradient></defs><rect width="1440" height="1024" fill="#F6F8FC"/><circle cx="1240" cy="90" r="280" fill="#DBEAFE" opacity="0.75"/><circle cx="80" cy="930" r="320" fill="#CCFBF1" opacity="0.5"/><text x="72" y="70" font-family="Inter, Geist, Arial, sans-serif" font-size="28" font-weight="900" fill="#2563EB">StormeAI</text><text x="72" y="118" font-family="Inter, Geist, Arial, sans-serif" font-size="42" font-weight="850" fill="#0B1220">Appointments Inbox</text><text x="72" y="154" font-family="Inter, Geist, Arial, sans-serif" font-size="17" font-weight="500" fill="#64748B">Review, confirm, reschedule, and cancel patient bookings</text><rect x="48" y="190" width="272" height="770" rx="30" fill="rgba(255,255,255,.86)" stroke="#E2E8F0" stroke-width="1"/><text x="82" y="242" font-family="Inter, Geist, Arial, sans-serif" font-size="15" font-weight="800" fill="#64748B">Organization Workspace</text><rect x="76" y="270" width="216" height="42" rx="15" fill="transparent" stroke="transparent" stroke-width="1"/><text x="96" y="297" font-family="Inter, Geist, Arial, sans-serif" font-size="14" font-weight="800" fill="#64748B">Dashboard</text><rect x="76" y="328" width="216" height="42" rx="15" fill="transparent" stroke="transparent" stroke-width="1"/><text x="96" y="355" font-family="Inter, Geist, Arial, sans-serif" font-size="14" font-weight="800" fill="#64748B">AI Agent</text><rect x="76" y="386" width="216" height="42" rx="15" fill="transparent" stroke="transparent" stroke-width="1"/><text x="96" y="413" font-family="Inter, Geist, Arial, sans-serif" font-size="14" font-weight="800" fill="#64748B">Personality</text><rect x="76" y="444" width="216" height="42" rx="15" fill="transparent" stroke="transparent" stroke-width="1"/><text x="96" y="471" font-family="Inter, Geist, Arial, sans-serif" font-size="14" font-weight="800" fill="#64748B">AI Providers</text><rect x="76" y="502" width="216" height="42" rx="15" fill="transparent" stroke="transparent" stroke-width="1"/><text x="96" y="529" font-family="Inter, Geist, Arial, sans-serif" font-size="14" font-weight="800" fill="#64748B">Knowledge Base</text><rect x="76" y="560" width="216" height="42" rx="15" fill="#EFF6FF" stroke="#2563EB" stroke-width="1"/><text x="96" y="587" font-family="Inter, Geist, Arial, sans-serif" font-size="14" font-weight="800" fill="#2563EB">Appointments</text><rect x="76" y="618" width="216" height="42" rx="15" fill="transparent" stroke="transparent" stroke-width="1"/><text x="96" y="645" font-family="Inter, Geist, Arial, sans-serif" font-size="14" font-weight="800" fill="#64748B">Workflows</text><rect x="76" y="676" width="216" height="42" rx="15" fill="transparent" stroke="transparent" stroke-width="1"/><text x="96" y="703" font-family="Inter, Geist, Arial, sans-serif" font-size="14" font-weight="800" fill="#64748B">n8n</text><rect x="76" y="734" width="216" height="42" rx="15" fill="transparent" stroke="transparent" stroke-width="1"/><text x="96" y="761" font-family="Inter, Geist, Arial, sans-serif" font-size="14" font-weight="800" fill="#64748B">Billing</text><rect x="76" y="792" width="216" height="42" rx="15" fill="transparent" stroke="transparent" stroke-width="1"/><text x="96" y="819" font-family="Inter, Geist, Arial, sans-serif" font-size="14" font-weight="800" fill="#64748B">Analytics</text><rect x="76" y="850" width="216" height="42" rx="15" fill="transparent" stroke="transparent" stroke-width="1"/><text x="96" y="877" font-family="Inter, Geist, Arial, sans-serif" font-size="14" font-weight="800" fill="#64748B">Safety</text><rect x="350" y="220" width="950" height="96" rx="26" fill="#FFFFFF" stroke="#E2E8F0" stroke-width="1"/><text x="390" y="280" font-family="Inter, Geist, Arial, sans-serif" font-size="28" font-weight="900" fill="#0B1220">Appointment requests</text><rect x="1100" y="244" width="140" height="52" rx="16" fill="#2563EB" stroke="#2563EB" stroke-width="1"/><text x="1128" y="277" font-family="Inter, Geist, Arial, sans-serif" font-size="16" font-weight="800" fill="#FFF">New slot</text><rect x="350" y="350" width="145" height="34" rx="17" fill="#F59E0B" opacity="0.12"/><text x="365" y="372" font-family="Inter, Arial" font-size="12" font-weight="800" fill="#F59E0B">Requested</text><rect x="525" y="350" width="145" height="34" rx="17" fill="#16A34A" opacity="0.12"/><text x="540" y="372" font-family="Inter, Arial" font-size="12" font-weight="800" fill="#16A34A">Confirmed</text><rect x="700" y="350" width="145" height="34" rx="17" fill="#2563EB" opacity="0.12"/><text x="715" y="372" font-family="Inter, Arial" font-size="12" font-weight="800" fill="#2563EB">Rescheduled</text><rect x="875" y="350" width="145" height="34" rx="17" fill="#DC2626" opacity="0.12"/><text x="890" y="372" font-family="Inter, Arial" font-size="12" font-weight="800" fill="#DC2626">Canceled</text><rect x="350" y="425" width="950" height="72" rx="20" fill="#FFFFFF" stroke="#E2E8F0" stroke-width="1"/><text x="390" y="470" font-family="Inter, Geist, Arial, sans-serif" font-size="18" font-weight="800" fill="#0B1220">Maria Santos — Dental Cleaning — Tomorrow 10:00 AM</text><rect x="1110" y="440" width="130" height="52" rx="16" fill="#2563EB" stroke="#2563EB" stroke-width="1"/><text x="1138" y="473" font-family="Inter, Geist, Arial, sans-serif" font-size="16" font-weight="800" fill="#FFF">Confirm</text><rect x="350" y="517" width="950" height="72" rx="20" fill="#FFFFFF" stroke="#E2E8F0" stroke-width="1"/><text x="390" y="562" font-family="Inter, Geist, Arial, sans-serif" font-size="18" font-weight="800" fill="#0B1220">John Cruz — Derma Consultation — Friday 2:00 PM</text><rect x="1110" y="532" width="130" height="52" rx="16" fill="#2563EB" stroke="#2563EB" stroke-width="1"/><text x="1138" y="565" font-family="Inter, Geist, Arial, sans-serif" font-size="16" font-weight="800" fill="#FFF">Confirm</text><rect x="350" y="609" width="950" height="72" rx="20" fill="#FFFFFF" stroke="#E2E8F0" stroke-width="1"/><text x="390" y="654" font-family="Inter, Geist, Arial, sans-serif" font-size="18" font-weight="800" fill="#0B1220">Ana Reyes — Lab Test — Monday 8:00 AM</text><rect x="1110" y="624" width="130" height="52" rx="16" fill="#2563EB" stroke="#2563EB" stroke-width="1"/><text x="1138" y="657" font-family="Inter, Geist, Arial, sans-serif" font-size="16" font-weight="800" fill="#FFF">Confirm</text><rect x="350" y="701" width="950" height="72" rx="20" fill="#FFFFFF" stroke="#E2E8F0" stroke-width="1"/><text x="390" y="746" font-family="Inter, Geist, Arial, sans-serif" font-size="18" font-weight="800" fill="#0B1220">Carlo Dela Cruz — Reschedule Request</text><rect x="1110" y="716" width="130" height="52" rx="16" fill="#FFFFFF" stroke="#E2E8F0" stroke-width="1"/><text x="1138" y="749" font-family="Inter, Geist, Arial, sans-serif" font-size="16" font-weight="800" fill="#2563EB">Review</text></svg>