<svg width="1440" height="1024" viewBox="0 0 1440 1024" fill="none" xmlns="http://www.w3.org/2000/svg"><rect width="1440" height="1024" fill="#F8FAFC"/><circle cx="1230" cy="120" r="260" fill="#EFF6FF"/><circle cx="120" cy="940" r="260" fill="#F0FDFA"/><text x="72" y="78" font-family="Inter, Arial, sans-serif" font-size="28" font-weight="800" fill="#2563EB">StormeAI</text><text x="72" y="126" font-family="Inter, Arial, sans-serif" font-size="44" font-weight="800" fill="#0F172A">Billing / Manual Subscription</text><text x="72" y="164" font-family="Inter, Arial, sans-serif" font-size="18" font-weight="500" fill="#64748B">Manual billing first, Paddle later</text><rect x="48" y="200" width="260" height="720" rx="28" fill="#FFFFFF" stroke="#E2E8F0"/> <text x="78" y="250" font-family="Inter, Arial, sans-serif" font-size="16" font-weight="700" fill="#64748B">Navigation</text> <rect x="74" y="280" width="208" height="42" rx="14" fill="#EFF6FF" stroke="#2563EB"/><text x="94" y="307" font-family="Inter, Arial, sans-serif" font-size="15" font-weight="700" fill="#2563EB">Dashboard</text><rect x="74" y="338" width="208" height="42" rx="14" fill="#FFF" stroke="#E2E8F0"/><text x="94" y="365" font-family="Inter, Arial, sans-serif" font-size="15" font-weight="700" fill="#64748B">AI Receptionist</text><rect x="74" y="396" width="208" height="42" rx="14" fill="#FFF" stroke="#E2E8F0"/><text x="94" y="423" font-family="Inter, Arial, sans-serif" font-size="15" font-weight="700" fill="#64748B">Knowledge Base</text><rect x="74" y="454" width="208" height="42" rx="14" fill="#FFF" stroke="#E2E8F0"/><text x="94" y="481" font-family="Inter, Arial, sans-serif" font-size="15" font-weight="700" fill="#64748B">Appointments</text><rect x="74" y="512" width="208" height="42" rx="14" fill="#FFF" stroke="#E2E8F0"/><text x="94" y="539" font-family="Inter, Arial, sans-serif" font-size="15" font-weight="700" fill="#64748B">Workflows</text><rect x="74" y="570" width="208" height="42" rx="14" fill="#FFF" stroke="#E2E8F0"/><text x="94" y="597" font-family="Inter, Arial, sans-serif" font-size="15" font-weight="700" fill="#64748B">Billing</text><rect x="350" y="220" width="950" height="210" rx="30" fill="#FFF" stroke="#E2E8F0"/> <text x="390" y="282" font-family="Inter, Arial, sans-serif" font-size="18" font-weight="700" fill="#64748B">Current plan</text><text x="390" y="330" font-family="Inter, Arial, sans-serif" font-size="36" font-weight="800" fill="#0F172A">Pro — Manual billing</text><rect x="390" y="355" width="110" height="36" rx="18" fill="#16A34A" opacity="0.12"/><text x="406" y="379" font-family="Inter, Arial, sans-serif" font-size="13" font-weight="700" fill="#16A34A">ACTIVE</text><text x="780" y="300" font-family="Inter, Arial, sans-serif" font-size="14" font-weight="700" fill="#64748B">Billing provider</text><text x="780" y="334" font-family="Inter, Arial, sans-serif" font-size="24" font-weight="800" fill="#0F172A">Manual bank transfer</text><rect x="350" y="470" width="950" height="330" rx="30" fill="#FFF" stroke="#E2E8F0"/> <text x="390" y="530" font-family="Inter, Arial, sans-serif" font-size="24" font-weight="800" fill="#0F172A">Payment reference</text><rect x="390" y="570" width="420" height="56" rx="16" fill="#FFF" stroke="#E2E8F0"/> <text x="415" y="604" font-family="Inter, Arial, sans-serif" font-size="16" font-weight="500" fill="#64748B">Bank transfer reference number</text><rect x="390" y="670" width="220" height="56" rx="18" fill="#2563EB" stroke="#2563EB"/><text x="430" y="706" font-family="Inter, Arial, sans-serif" font-size="17" font-weight="800" fill="#FFF">Mark as paid</text><text x="760" y="706" font-family="Inter, Arial, sans-serif" font-size="17" font-weight="600" fill="#64748B">Paddle automation can be enabled later.</text></svg>