<svg width="1440" height="1024" viewBox="0 0 1440 1024" fill="none" xmlns="http://www.w3.org/2000/svg"><rect width="1440" height="1024" fill="#F8FAFC"/><circle cx="1230" cy="120" r="260" fill="#EFF6FF"/><circle cx="120" cy="940" r="260" fill="#F0FDFA"/><text x="72" y="78" font-family="Inter, Arial, sans-serif" font-size="28" font-weight="800" fill="#2563EB">StormeAI</text><text x="72" y="126" font-family="Inter, Arial, sans-serif" font-size="44" font-weight="800" fill="#0F172A">Analytics</text><text x="72" y="164" font-family="Inter, Arial, sans-serif" font-size="18" font-weight="500" fill="#64748B">Conversation, booking, and knowledge insights</text><rect x="48" y="200" width="260" height="720" rx="28" fill="#FFFFFF" stroke="#E2E8F0"/> <text x="78" y="250" font-family="Inter, Arial, sans-serif" font-size="16" font-weight="700" fill="#64748B">Navigation</text> <rect x="74" y="280" width="208" height="42" rx="14" fill="#EFF6FF" stroke="#2563EB"/><text x="94" y="307" font-family="Inter, Arial, sans-serif" font-size="15" font-weight="700" fill="#2563EB">Dashboard</text><rect x="74" y="338" width="208" height="42" rx="14" fill="#FFF" stroke="#E2E8F0"/><text x="94" y="365" font-family="Inter, Arial, sans-serif" font-size="15" font-weight="700" fill="#64748B">AI Receptionist</text><rect x="74" y="396" width="208" height="42" rx="14" fill="#FFF" stroke="#E2E8F0"/><text x="94" y="423" font-family="Inter, Arial, sans-serif" font-size="15" font-weight="700" fill="#64748B">Knowledge Base</text><rect x="74" y="454" width="208" height="42" rx="14" fill="#FFF" stroke="#E2E8F0"/><text x="94" y="481" font-family="Inter, Arial, sans-serif" font-size="15" font-weight="700" fill="#64748B">Appointments</text><rect x="74" y="512" width="208" height="42" rx="14" fill="#FFF" stroke="#E2E8F0"/><text x="94" y="539" font-family="Inter, Arial, sans-serif" font-size="15" font-weight="700" fill="#64748B">Workflows</text><rect x="74" y="570" width="208" height="42" rx="14" fill="#FFF" stroke="#E2E8F0"/><text x="94" y="597" font-family="Inter, Arial, sans-serif" font-size="15" font-weight="700" fill="#64748B">Billing</text><rect x="350" y="220" width="210" height="130" rx="24" fill="#FFF" stroke="#E2E8F0"/> <text x="382" y="268" font-family="Inter, Arial, sans-serif" font-size="36" font-weight="800" fill="#0F172A">320</text><text x="382" y="307" font-family="Inter, Arial, sans-serif" font-size="15" font-weight="600" fill="#64748B">Total chats</text><rect x="585" y="220" width="210" height="130" rx="24" fill="#FFF" stroke="#E2E8F0"/> <text x="617" y="268" font-family="Inter, Arial, sans-serif" font-size="36" font-weight="800" fill="#0F172A">18%</text><text x="617" y="307" font-family="Inter, Arial, sans-serif" font-size="15" font-weight="600" fill="#64748B">Booking conversion</text><rect x="820" y="220" width="210" height="130" rx="24" fill="#FFF" stroke="#E2E8F0"/> <text x="852" y="268" font-family="Inter, Arial, sans-serif" font-size="36" font-weight="800" fill="#0F172A">12</text><text x="852" y="307" font-family="Inter, Arial, sans-serif" font-size="15" font-weight="600" fill="#64748B">No-shows prevented</text><rect x="1055" y="220" width="210" height="130" rx="24" fill="#FFF" stroke="#E2E8F0"/> <text x="1087" y="268" font-family="Inter, Arial, sans-serif" font-size="36" font-weight="800" fill="#0F172A">7</text><text x="1087" y="307" font-family="Inter, Arial, sans-serif" font-size="15" font-weight="600" fill="#64748B">Top unanswered</text> <rect x="350" y="400" width="950" height="380" rx="30" fill="#FFF" stroke="#E2E8F0"/> <text x="390" y="458" font-family="Inter, Arial, sans-serif" font-size="24" font-weight="800" fill="#0F172A">Top patient questions</text><rect x="390" y="500" width="820" height="46" rx="14" fill="#FFF" stroke="#E2E8F0"/> <text x="415" y="530" font-family="Inter, Arial, sans-serif" font-size="16" font-weight="700" fill="#0F172A">How much is consultation?</text><rect x="390" y="564" width="820" height="46" rx="14" fill="#F8FAFC" stroke="#E2E8F0"/> <text x="415" y="594" font-family="Inter, Arial, sans-serif" font-size="16" font-weight="700" fill="#0F172A">Are walk-ins allowed?</text><rect x="390" y="628" width="820" height="46" rx="14" fill="#FFF" stroke="#E2E8F0"/> <text x="415" y="658" font-family="Inter, Arial, sans-serif" font-size="16" font-weight="700" fill="#0F172A">Do you offer acne scar treatment?</text><rect x="390" y="692" width="820" height="46" rx="14" fill="#F8FAFC" stroke="#E2E8F0"/> <text x="415" y="722" font-family="Inter, Arial, sans-serif" font-size="16" font-weight="700" fill="#0F172A">Can I reschedule tomorrow?</text></svg>