<svg width="1440" height="1024" viewBox="0 0 1440 1024" fill="none" xmlns="http://www.w3.org/2000/svg"><defs><filter id="shadow" x="-20%" y="-20%" width="140%" height="140%"><feDropShadow dx="0" dy="18" stdDeviation="18" flood-color="#0F172A" flood-opacity="0.08"/></filter><linearGradient id="hero" x1="0" y1="0" x2="1" y2="1"><stop stop-color="#2563EB"/><stop offset="1" stop-color="#14B8A6"/></linearGradient></defs><rect width="1440" height="1024" fill="#F6F8FC"/><circle cx="1240" cy="90" r="280" fill="#DBEAFE" opacity="0.75"/><circle cx="80" cy="930" r="320" fill="#CCFBF1" opacity="0.5"/><text x="72" y="70" font-family="Inter, Geist, Arial, sans-serif" font-size="28" font-weight="900" fill="#2563EB">StormeAI</text><text x="72" y="118" font-family="Inter, Geist, Arial, sans-serif" font-size="42" font-weight="850" fill="#0B1220">Patient Chat Widget States</text><text x="72" y="154" font-family="Inter, Geist, Arial, sans-serif" font-size="17" font-weight="500" fill="#64748B">Friendly, mobile-first, safe chat experience</text><rect x="100" y="220" width="380" height="650" rx="36" fill="#FFFFFF" stroke="#E2E8F0" stroke-width="1"/><text x="140" y="280" font-family="Inter, Geist, Arial, sans-serif" font-size="24" font-weight="900" fill="#0B1220">Greeting</text><rect x="140" y="340" width="260" height="72" rx="22" fill="#F0FDFA" stroke="#F0FDFA" stroke-width="1"/><text x="165" y="374" font-family="Inter, Geist, Arial, sans-serif" font-size="15" font-weight="650" fill="#0B1220">Hi! I’m Meng, the clinic</text><text x="165" y="398" font-family="Inter, Geist, Arial, sans-serif" font-size="15" font-weight="650" fill="#0B1220">chat receptionist.</text><rect x="530" y="220" width="380" height="650" rx="36" fill="#FFFFFF" stroke="#E2E8F0" stroke-width="1"/><text x="570" y="280" font-family="Inter, Geist, Arial, sans-serif" font-size="24" font-weight="900" fill="#0B1220">Booking flow</text><rect x="570" y="340" width="270" height="72" rx="22" fill="#EFF6FF" stroke="#EFF6FF" stroke-width="1"/><text x="595" y="374" font-family="Inter, Geist, Arial, sans-serif" font-size="15" font-weight="650" fill="#0B1220">What service would you</text><text x="595" y="398" font-family="Inter, Geist, Arial, sans-serif" font-size="15" font-weight="650" fill="#0B1220">like to book?</text><rect x="570" y="440" width="230" height="42" rx="14" fill="#FFFFFF" stroke="#E2E8F0" stroke-width="1"/><text x="592" y="467" font-family="Inter, Geist, Arial, sans-serif" font-size="15" font-weight="800" fill="#2563EB">Dental Cleaning</text><rect x="570" y="498" width="230" height="42" rx="14" fill="#FFFFFF" stroke="#E2E8F0" stroke-width="1"/><text x="592" y="525" font-family="Inter, Geist, Arial, sans-serif" font-size="15" font-weight="800" fill="#2563EB">Consultation</text><rect x="570" y="556" width="230" height="42" rx="14" fill="#FFFFFF" stroke="#E2E8F0" stroke-width="1"/><text x="592" y="583" font-family="Inter, Geist, Arial, sans-serif" font-size="15" font-weight="800" fill="#2563EB">Lab Test</text><rect x="960" y="220" width="380" height="650" rx="36" fill="#FFFFFF" stroke="#E2E8F0" stroke-width="1"/><text x="1000" y="280" font-family="Inter, Geist, Arial, sans-serif" font-size="24" font-weight="900" fill="#0B1220">Emergency state</text><rect x="1000" y="340" width="280" height="112" rx="22" fill="#FEF2F2" stroke="#FEF2F2" stroke-width="1"/><text x="1025" y="374" font-family="Inter, Geist, Arial, sans-serif" font-size="15" font-weight="800" fill="#DC2626">If this is urgent or</text><text x="1025" y="398" font-family="Inter, Geist, Arial, sans-serif" font-size="15" font-weight="800" fill="#DC2626">life-threatening, call</text><text x="1025" y="422" font-family="Inter, Geist, Arial, sans-serif" font-size="15" font-weight="800" fill="#DC2626">emergency services now.</text><rect x="1000" y="500" width="180" height="34" rx="17" fill="#DC2626" opacity="0.12"/><text x="1015" y="522" font-family="Inter, Arial" font-size="12" font-weight="800" fill="#DC2626">Handoff alert created</text></svg>