<svg width="1440" height="1024" viewBox="0 0 1440 1024" fill="none" xmlns="http://www.w3.org/2000/svg"><defs><filter id="shadow" x="-20%" y="-20%" width="140%" height="140%"><feDropShadow dx="0" dy="18" stdDeviation="18" flood-color="#0F172A" flood-opacity="0.08"/></filter><linearGradient id="hero" x1="0" y1="0" x2="1" y2="1"><stop stop-color="#2563EB"/><stop offset="1" stop-color="#14B8A6"/></linearGradient></defs><rect width="1440" height="1024" fill="#F6F8FC"/><circle cx="1240" cy="90" r="280" fill="#DBEAFE" opacity="0.75"/><circle cx="80" cy="930" r="320" fill="#CCFBF1" opacity="0.5"/><text x="72" y="70" font-family="Inter, Geist, Arial, sans-serif" font-size="28" font-weight="900" fill="#2563EB">StormeAI</text><text x="72" y="118" font-family="Inter, Geist, Arial, sans-serif" font-size="42" font-weight="850" fill="#0B1220">Workflow Builder</text><text x="72" y="154" font-family="Inter, Geist, Arial, sans-serif" font-size="17" font-weight="500" fill="#64748B">Visual control with React Flow + n8n execution</text><rect x="48" y="190" width="272" height="770" rx="30" fill="rgba(255,255,255,.86)" stroke="#E2E8F0" stroke-width="1"/><text x="82" y="242" font-family="Inter, Geist, Arial, sans-serif" font-size="15" font-weight="800" fill="#64748B">Organization Workspace</text><rect x="76" y="270" width="216" height="42" rx="15" fill="transparent" stroke="transparent" stroke-width="1"/><text x="96" y="297" font-family="Inter, Geist, Arial, sans-serif" font-size="14" font-weight="800" fill="#64748B">Dashboard</text><rect x="76" y="328" width="216" height="42" rx="15" fill="transparent" stroke="transparent" stroke-width="1"/><text x="96" y="355" font-family="Inter, Geist, Arial, sans-serif" font-size="14" font-weight="800" fill="#64748B">AI Agent</text><rect x="76" y="386" width="216" height="42" rx="15" fill="transparent" stroke="transparent" stroke-width="1"/><text x="96" y="413" font-family="Inter, Geist, Arial, sans-serif" font-size="14" font-weight="800" fill="#64748B">Personality</text><rect x="76" y="444" width="216" height="42" rx="15" fill="transparent" stroke="transparent" stroke-width="1"/><text x="96" y="471" font-family="Inter, Geist, Arial, sans-serif" font-size="14" font-weight="800" fill="#64748B">AI Providers</text><rect x="76" y="502" width="216" height="42" rx="15" fill="transparent" stroke="transparent" stroke-width="1"/><text x="96" y="529" font-family="Inter, Geist, Arial, sans-serif" font-size="14" font-weight="800" fill="#64748B">Knowledge Base</text><rect x="76" y="560" width="216" height="42" rx="15" fill="transparent" stroke="transparent" stroke-width="1"/><text x="96" y="587" font-family="Inter, Geist, Arial, sans-serif" font-size="14" font-weight="800" fill="#64748B">Appointments</text><rect x="76" y="618" width="216" height="42" rx="15" fill="#EFF6FF" stroke="#2563EB" stroke-width="1"/><text x="96" y="645" font-family="Inter, Geist, Arial, sans-serif" font-size="14" font-weight="800" fill="#2563EB">Workflows</text><rect x="76" y="676" width="216" height="42" rx="15" fill="transparent" stroke="transparent" stroke-width="1"/><text x="96" y="703" font-family="Inter, Geist, Arial, sans-serif" font-size="14" font-weight="800" fill="#64748B">n8n</text><rect x="76" y="734" width="216" height="42" rx="15" fill="transparent" stroke="transparent" stroke-width="1"/><text x="96" y="761" font-family="Inter, Geist, Arial, sans-serif" font-size="14" font-weight="800" fill="#64748B">Billing</text><rect x="76" y="792" width="216" height="42" rx="15" fill="transparent" stroke="transparent" stroke-width="1"/><text x="96" y="819" font-family="Inter, Geist, Arial, sans-serif" font-size="14" font-weight="800" fill="#64748B">Analytics</text><rect x="76" y="850" width="216" height="42" rx="15" fill="transparent" stroke="transparent" stroke-width="1"/><text x="96" y="877" font-family="Inter, Geist, Arial, sans-serif" font-size="14" font-weight="800" fill="#64748B">Safety</text><rect x="350" y="220" width="950" height="690" rx="30" fill="#FFFFFF" stroke="#E2E8F0" stroke-width="1"/><text x="390" y="280" font-family="Inter, Geist, Arial, sans-serif" font-size="28" font-weight="900" fill="#0B1220">Patient booking workflow</text><rect x="410" y="350" width="160" height="72" rx="20" fill="#EFF6FF" stroke="#E2E8F0" stroke-width="1"/><text x="435" y="393" font-family="Inter, Geist, Arial, sans-serif" font-size="15" font-weight="850" fill="#0B1220">Greeting</text><rect x="620" y="350" width="160" height="72" rx="20" fill="#F0FDFA" stroke="#E2E8F0" stroke-width="1"/><text x="645" y="393" font-family="Inter, Geist, Arial, sans-serif" font-size="15" font-weight="850" fill="#0B1220">Intent Detect</text><rect x="830" y="350" width="160" height="72" rx="20" fill="#F5F3FF" stroke="#E2E8F0" stroke-width="1"/><text x="855" y="393" font-family="Inter, Geist, Arial, sans-serif" font-size="15" font-weight="850" fill="#0B1220">FAQ Lookup</text><rect x="1040" y="350" width="160" height="72" rx="20" fill="#FFF7ED" stroke="#E2E8F0" stroke-width="1"/><text x="1065" y="393" font-family="Inter, Geist, Arial, sans-serif" font-size="15" font-weight="850" fill="#0B1220">Book Appointment</text><rect x="410" y="530" width="160" height="72" rx="20" fill="#EFF6FF" stroke="#E2E8F0" stroke-width="1"/><text x="435" y="573" font-family="Inter, Geist, Arial, sans-serif" font-size="15" font-weight="850" fill="#0B1220">Send Email</text><rect x="620" y="530" width="160" height="72" rx="20" fill="#F0FDFA" stroke="#E2E8F0" stroke-width="1"/><text x="645" y="573" font-family="Inter, Geist, Arial, sans-serif" font-size="15" font-weight="850" fill="#0B1220">Trigger n8n</text><rect x="830" y="530" width="160" height="72" rx="20" fill="#FEF2F2" stroke="#E2E8F0" stroke-width="1"/><text x="855" y="573" font-family="Inter, Geist, Arial, sans-serif" font-size="15" font-weight="850" fill="#0B1220">Human Handoff</text><rect x="1040" y="530" width="160" height="72" rx="20" fill="#F6F8FC" stroke="#E2E8F0" stroke-width="1"/><text x="1065" y="573" font-family="Inter, Geist, Arial, sans-serif" font-size="15" font-weight="850" fill="#0B1220">End</text><text x="620" y="395" font-family="Inter, Geist, Arial, sans-serif" font-size="34" font-weight="800" fill="#64748B">→</text><text x="830" y="395" font-family="Inter, Geist, Arial, sans-serif" font-size="34" font-weight="800" fill="#64748B">→</text><text x="1040" y="395" font-family="Inter, Geist, Arial, sans-serif" font-size="34" font-weight="800" fill="#64748B">→</text><text x="620" y="575" font-family="Inter, Geist, Arial, sans-serif" font-size="34" font-weight="800" fill="#64748B">→</text><text x="830" y="575" font-family="Inter, Geist, Arial, sans-serif" font-size="34" font-weight="800" fill="#64748B">→</text><text x="1040" y="575" font-family="Inter, Geist, Arial, sans-serif" font-size="34" font-weight="800" fill="#64748B">→</text><rect x="390" y="800" width="830" height="54" rx="18" fill="#EFF6FF" stroke="#EFF6FF" stroke-width="1"/><text x="420" y="834" font-family="Inter, Geist, Arial, sans-serif" font-size="16" font-weight="800" fill="#2563EB">Execution mode: StormeAI stores workflow config, n8n handles automations.</text></svg>