<svg width="1440" height="1024" viewBox="0 0 1440 1024" fill="none" xmlns="http://www.w3.org/2000/svg"><defs><filter id="shadow" x="-20%" y="-20%" width="140%" height="140%"><feDropShadow dx="0" dy="18" stdDeviation="18" flood-color="#0F172A" flood-opacity="0.08"/></filter><linearGradient id="hero" x1="0" y1="0" x2="1" y2="1"><stop stop-color="#2563EB"/><stop offset="1" stop-color="#14B8A6"/></linearGradient></defs><rect width="1440" height="1024" fill="#F6F8FC"/><circle cx="1240" cy="90" r="280" fill="#DBEAFE" opacity="0.75"/><circle cx="80" cy="930" r="320" fill="#CCFBF1" opacity="0.5"/><text x="72" y="70" font-family="Inter, Geist, Arial, sans-serif" font-size="28" font-weight="900" fill="#2563EB">StormeAI</text><text x="72" y="118" font-family="Inter, Geist, Arial, sans-serif" font-size="42" font-weight="850" fill="#0B1220">n8n Integration Settings</text><text x="72" y="154" font-family="Inter, Geist, Arial, sans-serif" font-size="17" font-weight="500" fill="#64748B">Webhook automation for clinic operations</text><rect x="48" y="190" width="272" height="770" rx="30" fill="rgba(255,255,255,.86)" stroke="#E2E8F0" stroke-width="1"/><text x="82" y="242" font-family="Inter, Geist, Arial, sans-serif" font-size="15" font-weight="800" fill="#64748B">Clinic Workspace</text><rect x="76" y="270" width="216" height="42" rx="15" fill="transparent" stroke="transparent" stroke-width="1"/><text x="96" y="297" font-family="Inter, Geist, Arial, sans-serif" font-size="14" font-weight="800" fill="#64748B">Dashboard</text><rect x="76" y="328" width="216" height="42" rx="15" fill="transparent" stroke="transparent" stroke-width="1"/><text x="96" y="355" font-family="Inter, Geist, Arial, sans-serif" font-size="14" font-weight="800" fill="#64748B">AI Receptionist</text><rect x="76" y="386" width="216" height="42" rx="15" fill="transparent" stroke="transparent" stroke-width="1"/><text x="96" y="413" font-family="Inter, Geist, Arial, sans-serif" font-size="14" font-weight="800" fill="#64748B">Personality</text><rect x="76" y="444" width="216" height="42" rx="15" fill="transparent" stroke="transparent" stroke-width="1"/><text x="96" y="471" font-family="Inter, Geist, Arial, sans-serif" font-size="14" font-weight="800" fill="#64748B">AI Providers</text><rect x="76" y="502" width="216" height="42" rx="15" fill="transparent" stroke="transparent" stroke-width="1"/><text x="96" y="529" font-family="Inter, Geist, Arial, sans-serif" font-size="14" font-weight="800" fill="#64748B">Knowledge Base</text><rect x="76" y="560" width="216" height="42" rx="15" fill="transparent" stroke="transparent" stroke-width="1"/><text x="96" y="587" font-family="Inter, Geist, Arial, sans-serif" font-size="14" font-weight="800" fill="#64748B">Appointments</text><rect x="76" y="618" width="216" height="42" rx="15" fill="transparent" stroke="transparent" stroke-width="1"/><text x="96" y="645" font-family="Inter, Geist, Arial, sans-serif" font-size="14" font-weight="800" fill="#64748B">Workflows</text><rect x="76" y="676" width="216" height="42" rx="15" fill="#EFF6FF" stroke="#2563EB" stroke-width="1"/><text x="96" y="703" font-family="Inter, Geist, Arial, sans-serif" font-size="14" font-weight="800" fill="#2563EB">n8n</text><rect x="76" y="734" width="216" height="42" rx="15" fill="transparent" stroke="transparent" stroke-width="1"/><text x="96" y="761" font-family="Inter, Geist, Arial, sans-serif" font-size="14" font-weight="800" fill="#64748B">Billing</text><rect x="76" y="792" width="216" height="42" rx="15" fill="transparent" stroke="transparent" stroke-width="1"/><text x="96" y="819" font-family="Inter, Geist, Arial, sans-serif" font-size="14" font-weight="800" fill="#64748B">Analytics</text><rect x="76" y="850" width="216" height="42" rx="15" fill="transparent" stroke="transparent" stroke-width="1"/><text x="96" y="877" font-family="Inter, Geist, Arial, sans-serif" font-size="14" font-weight="800" fill="#64748B">Safety</text><rect x="350" y="220" width="950" height="660" rx="30" fill="#FFFFFF" stroke="#E2E8F0" stroke-width="1"/><text x="390" y="280" font-family="Inter, Geist, Arial, sans-serif" font-size="28" font-weight="900" fill="#0B1220">n8n connection</text><text x="390" y="340" font-family="Inter, Geist, Arial, sans-serif" font-size="13" font-weight="800" fill="#64748B">Base URL</text><rect x="390" y="352" width="790" height="52" rx="15" fill="#FFFFFF" stroke="#E2E8F0" stroke-width="1"/><text x="408" y="385" font-family="Inter, Geist, Arial, sans-serif" font-size="15" font-weight="600" fill="#0B1220">http://localhost:5678</text><text x="390" y="450" font-family="Inter, Geist, Arial, sans-serif" font-size="13" font-weight="800" fill="#64748B">Webhook base URL</text><rect x="390" y="462" width="790" height="52" rx="15" fill="#FFFFFF" stroke="#E2E8F0" stroke-width="1"/><text x="408" y="495" font-family="Inter, Geist, Arial, sans-serif" font-size="15" font-weight="600" fill="#0B1220">http://localhost:5678/webhook</text><rect x="390" y="570" width="58" height="32" rx="16" fill="#2563EB" stroke="#2563EB" stroke-width="1"/><circle cx="432" cy="586" r="11" fill="#FFF"/><text x="470" y="593" font-family="Inter, Geist, Arial, sans-serif" font-size="16" font-weight="800" fill="#0B1220">appointment.created</text><rect x="840" y="560" width="95" height="34" rx="17" fill="#16A34A" opacity="0.12"/><text x="855" y="582" font-family="Inter, Arial" font-size="12" font-weight="800" fill="#16A34A">Enabled</text><rect x="390" y="622" width="58" height="32" rx="16" fill="#2563EB" stroke="#2563EB" stroke-width="1"/><circle cx="432" cy="638" r="11" fill="#FFF"/><text x="470" y="645" font-family="Inter, Geist, Arial, sans-serif" font-size="16" font-weight="800" fill="#0B1220">appointment.rescheduled</text><rect x="840" y="612" width="95" height="34" rx="17" fill="#16A34A" opacity="0.12"/><text x="855" y="634" font-family="Inter, Arial" font-size="12" font-weight="800" fill="#16A34A">Enabled</text><rect x="390" y="674" width="58" height="32" rx="16" fill="#2563EB" stroke="#2563EB" stroke-width="1"/><circle cx="432" cy="690" r="11" fill="#FFF"/><text x="470" y="697" font-family="Inter, Geist, Arial, sans-serif" font-size="16" font-weight="800" fill="#0B1220">appointment.canceled</text><rect x="840" y="664" width="95" height="34" rx="17" fill="#16A34A" opacity="0.12"/><text x="855" y="686" font-family="Inter, Arial" font-size="12" font-weight="800" fill="#16A34A">Enabled</text><rect x="390" y="726" width="58" height="32" rx="16" fill="#2563EB" stroke="#2563EB" stroke-width="1"/><circle cx="432" cy="742" r="11" fill="#FFF"/><text x="470" y="749" font-family="Inter, Geist, Arial, sans-serif" font-size="16" font-weight="800" fill="#0B1220">chat.handoff_requested</text><rect x="840" y="716" width="95" height="34" rx="17" fill="#16A34A" opacity="0.12"/><text x="855" y="738" font-family="Inter, Arial" font-size="12" font-weight="800" fill="#16A34A">Enabled</text><rect x="390" y="778" width="58" height="32" rx="16" fill="#2563EB" stroke="#2563EB" stroke-width="1"/><circle cx="432" cy="794" r="11" fill="#FFF"/><text x="470" y="801" font-family="Inter, Geist, Arial, sans-serif" font-size="16" font-weight="800" fill="#0B1220">knowledge.gap_detected</text><rect x="840" y="768" width="95" height="34" rx="17" fill="#16A34A" opacity="0.12"/><text x="855" y="790" font-family="Inter, Arial" font-size="12" font-weight="800" fill="#16A34A">Enabled</text><rect x="1030" y="780" width="190" height="52" rx="16" fill="#2563EB" stroke="#2563EB" stroke-width="1"/><text x="1058" y="813" font-family="Inter, Geist, Arial, sans-serif" font-size="16" font-weight="800" fill="#FFF">Send test event</text></svg>