<svg width="1440" height="1024" viewBox="0 0 1440 1024" fill="none" xmlns="http://www.w3.org/2000/svg"><defs><filter id="shadow" x="-20%" y="-20%" width="140%" height="140%"><feDropShadow dx="0" dy="18" stdDeviation="18" flood-color="#0F172A" flood-opacity="0.08"/></filter><linearGradient id="hero" x1="0" y1="0" x2="1" y2="1"><stop stop-color="#2563EB"/><stop offset="1" stop-color="#14B8A6"/></linearGradient></defs><rect width="1440" height="1024" fill="#F6F8FC"/><circle cx="1240" cy="90" r="280" fill="#DBEAFE" opacity="0.75"/><circle cx="80" cy="930" r="320" fill="#CCFBF1" opacity="0.5"/><text x="72" y="70" font-family="Inter, Geist, Arial, sans-serif" font-size="28" font-weight="900" fill="#2563EB">StormeAI</text><text x="72" y="118" font-family="Inter, Geist, Arial, sans-serif" font-size="42" font-weight="850" fill="#0B1220">Analytics &amp; Insights</text><text x="72" y="154" font-family="Inter, Geist, Arial, sans-serif" font-size="17" font-weight="500" fill="#64748B">Understand patient demand and receptionist performance</text><rect x="48" y="190" width="272" height="770" rx="30" fill="rgba(255,255,255,.86)" stroke="#E2E8F0" stroke-width="1"/><text x="82" y="242" font-family="Inter, Geist, Arial, sans-serif" font-size="15" font-weight="800" fill="#64748B">Clinic Workspace</text><rect x="76" y="270" width="216" height="42" rx="15" fill="transparent" stroke="transparent" stroke-width="1"/><text x="96" y="297" font-family="Inter, Geist, Arial, sans-serif" font-size="14" font-weight="800" fill="#64748B">Dashboard</text><rect x="76" y="328" width="216" height="42" rx="15" fill="transparent" stroke="transparent" stroke-width="1"/><text x="96" y="355" font-family="Inter, Geist, Arial, sans-serif" font-size="14" font-weight="800" fill="#64748B">AI Receptionist</text><rect x="76" y="386" width="216" height="42" rx="15" fill="transparent" stroke="transparent" stroke-width="1"/><text x="96" y="413" font-family="Inter, Geist, Arial, sans-serif" font-size="14" font-weight="800" fill="#64748B">Personality</text><rect x="76" y="444" width="216" height="42" rx="15" fill="transparent" stroke="transparent" stroke-width="1"/><text x="96" y="471" font-family="Inter, Geist, Arial, sans-serif" font-size="14" font-weight="800" fill="#64748B">AI Providers</text><rect x="76" y="502" width="216" height="42" rx="15" fill="transparent" stroke="transparent" stroke-width="1"/><text x="96" y="529" font-family="Inter, Geist, Arial, sans-serif" font-size="14" font-weight="800" fill="#64748B">Knowledge Base</text><rect x="76" y="560" width="216" height="42" rx="15" fill="transparent" stroke="transparent" stroke-width="1"/><text x="96" y="587" font-family="Inter, Geist, Arial, sans-serif" font-size="14" font-weight="800" fill="#64748B">Appointments</text><rect x="76" y="618" width="216" height="42" rx="15" fill="transparent" stroke="transparent" stroke-width="1"/><text x="96" y="645" font-family="Inter, Geist, Arial, sans-serif" font-size="14" font-weight="800" fill="#64748B">Workflows</text><rect x="76" y="676" width="216" height="42" rx="15" fill="transparent" stroke="transparent" stroke-width="1"/><text x="96" y="703" font-family="Inter, Geist, Arial, sans-serif" font-size="14" font-weight="800" fill="#64748B">n8n</text><rect x="76" y="734" width="216" height="42" rx="15" fill="transparent" stroke="transparent" stroke-width="1"/><text x="96" y="761" font-family="Inter, Geist, Arial, sans-serif" font-size="14" font-weight="800" fill="#64748B">Billing</text><rect x="76" y="792" width="216" height="42" rx="15" fill="#EFF6FF" stroke="#2563EB" stroke-width="1"/><text x="96" y="819" font-family="Inter, Geist, Arial, sans-serif" font-size="14" font-weight="800" fill="#2563EB">Analytics</text><rect x="76" y="850" width="216" height="42" rx="15" fill="transparent" stroke="transparent" stroke-width="1"/><text x="96" y="877" font-family="Inter, Geist, Arial, sans-serif" font-size="14" font-weight="800" fill="#64748B">Safety</text><rect x="350" y="220" width="210" height="128" rx="24" fill="#FFFFFF" stroke="#E2E8F0" stroke-width="1"/><text x="382" y="268" font-family="Inter, Geist, Arial, sans-serif" font-size="34" font-weight="900" fill="#0B1220">1240</text><text x="382" y="307" font-family="Inter, Geist, Arial, sans-serif" font-size="14" font-weight="700" fill="#64748B">Total chats</text><rect x="585" y="220" width="210" height="128" rx="24" fill="#FFFFFF" stroke="#E2E8F0" stroke-width="1"/><text x="617" y="268" font-family="Inter, Geist, Arial, sans-serif" font-size="34" font-weight="900" fill="#0B1220">21%</text><text x="617" y="307" font-family="Inter, Geist, Arial, sans-serif" font-size="14" font-weight="700" fill="#64748B">Booking conversion</text><rect x="820" y="220" width="210" height="128" rx="24" fill="#FFFFFF" stroke="#E2E8F0" stroke-width="1"/><text x="852" y="268" font-family="Inter, Geist, Arial, sans-serif" font-size="34" font-weight="900" fill="#0B1220">1.8s</text><text x="852" y="307" font-family="Inter, Geist, Arial, sans-serif" font-size="14" font-weight="700" fill="#64748B">Avg response</text><rect x="1055" y="220" width="210" height="128" rx="24" fill="#FFFFFF" stroke="#E2E8F0" stroke-width="1"/><text x="1087" y="268" font-family="Inter, Geist, Arial, sans-serif" font-size="34" font-weight="900" fill="#0B1220">13</text><text x="1087" y="307" font-family="Inter, Geist, Arial, sans-serif" font-size="14" font-weight="700" fill="#64748B">Knowledge gaps</text><rect x="350" y="390" width="950" height="380" rx="30" fill="#FFFFFF" stroke="#E2E8F0" stroke-width="1"/><text x="390" y="450" font-family="Inter, Geist, Arial, sans-serif" font-size="26" font-weight="900" fill="#0B1220">Top patient intents</text><text x="390" y="510" font-family="Inter, Geist, Arial, sans-serif" font-size="16" font-weight="750" fill="#0B1220">Book appointment</text><rect x="620" y="492" width="520" height="22" rx="11" fill="#2563EB" stroke="#2563EB" stroke-width="1"/><text x="390" y="560" font-family="Inter, Geist, Arial, sans-serif" font-size="16" font-weight="750" fill="#0B1220">Ask price</text><rect x="620" y="542" width="460" height="22" rx="11" fill="#14B8A6" stroke="#14B8A6" stroke-width="1"/><text x="390" y="610" font-family="Inter, Geist, Arial, sans-serif" font-size="16" font-weight="750" fill="#0B1220">Clinic hours</text><rect x="620" y="592" width="400" height="22" rx="11" fill="#7C3AED" stroke="#7C3AED" stroke-width="1"/><text x="390" y="660" font-family="Inter, Geist, Arial, sans-serif" font-size="16" font-weight="750" fill="#0B1220">Reschedule</text><rect x="620" y="642" width="340" height="22" rx="11" fill="#F59E0B" stroke="#F59E0B" stroke-width="1"/><text x="390" y="710" font-family="Inter, Geist, Arial, sans-serif" font-size="16" font-weight="750" fill="#0B1220">Human handoff</text><rect x="620" y="692" width="280" height="22" rx="11" fill="#DC2626" stroke="#DC2626" stroke-width="1"/></svg>