<svg width="1440" height="1024" viewBox="0 0 1440 1024" fill="none" xmlns="http://www.w3.org/2000/svg"><defs><filter id="shadow" x="-20%" y="-20%" width="140%" height="140%"><feDropShadow dx="0" dy="18" stdDeviation="18" flood-color="#0F172A" flood-opacity="0.08"/></filter><linearGradient id="hero" x1="0" y1="0" x2="1" y2="1"><stop stop-color="#2563EB"/><stop offset="1" stop-color="#14B8A6"/></linearGradient></defs><rect width="1440" height="1024" fill="#F6F8FC"/><circle cx="1240" cy="90" r="280" fill="#DBEAFE" opacity="0.75"/><circle cx="80" cy="930" r="320" fill="#CCFBF1" opacity="0.5"/><text x="72" y="70" font-family="Inter, Geist, Arial, sans-serif" font-size="28" font-weight="900" fill="#2563EB">StormeAI</text><text x="72" y="118" font-family="Inter, Geist, Arial, sans-serif" font-size="42" font-weight="850" fill="#0B1220">Safety, Escalation &amp; Human Handoff</text><text x="72" y="154" font-family="Inter, Geist, Arial, sans-serif" font-size="17" font-weight="500" fill="#64748B">Keep StormeAI safely in receptionist/admin scope</text><rect x="48" y="190" width="272" height="770" rx="30" fill="rgba(255,255,255,.86)" stroke="#E2E8F0" stroke-width="1"/><text x="82" y="242" font-family="Inter, Geist, Arial, sans-serif" font-size="15" font-weight="800" fill="#64748B">Clinic Workspace</text><rect x="76" y="270" width="216" height="42" rx="15" fill="transparent" stroke="transparent" stroke-width="1"/><text x="96" y="297" font-family="Inter, Geist, Arial, sans-serif" font-size="14" font-weight="800" fill="#64748B">Dashboard</text><rect x="76" y="328" width="216" height="42" rx="15" fill="transparent" stroke="transparent" stroke-width="1"/><text x="96" y="355" font-family="Inter, Geist, Arial, sans-serif" font-size="14" font-weight="800" fill="#64748B">AI Receptionist</text><rect x="76" y="386" width="216" height="42" rx="15" fill="transparent" stroke="transparent" stroke-width="1"/><text x="96" y="413" font-family="Inter, Geist, Arial, sans-serif" font-size="14" font-weight="800" fill="#64748B">Personality</text><rect x="76" y="444" width="216" height="42" rx="15" fill="transparent" stroke="transparent" stroke-width="1"/><text x="96" y="471" font-family="Inter, Geist, Arial, sans-serif" font-size="14" font-weight="800" fill="#64748B">AI Providers</text><rect x="76" y="502" width="216" height="42" rx="15" fill="transparent" stroke="transparent" stroke-width="1"/><text x="96" y="529" font-family="Inter, Geist, Arial, sans-serif" font-size="14" font-weight="800" fill="#64748B">Knowledge Base</text><rect x="76" y="560" width="216" height="42" rx="15" fill="transparent" stroke="transparent" stroke-width="1"/><text x="96" y="587" font-family="Inter, Geist, Arial, sans-serif" font-size="14" font-weight="800" fill="#64748B">Appointments</text><rect x="76" y="618" width="216" height="42" rx="15" fill="transparent" stroke="transparent" stroke-width="1"/><text x="96" y="645" font-family="Inter, Geist, Arial, sans-serif" font-size="14" font-weight="800" fill="#64748B">Workflows</text><rect x="76" y="676" width="216" height="42" rx="15" fill="transparent" stroke="transparent" stroke-width="1"/><text x="96" y="703" font-family="Inter, Geist, Arial, sans-serif" font-size="14" font-weight="800" fill="#64748B">n8n</text><rect x="76" y="734" width="216" height="42" rx="15" fill="transparent" stroke="transparent" stroke-width="1"/><text x="96" y="761" font-family="Inter, Geist, Arial, sans-serif" font-size="14" font-weight="800" fill="#64748B">Billing</text><rect x="76" y="792" width="216" height="42" rx="15" fill="transparent" stroke="transparent" stroke-width="1"/><text x="96" y="819" font-family="Inter, Geist, Arial, sans-serif" font-size="14" font-weight="800" fill="#64748B">Analytics</text><rect x="76" y="850" width="216" height="42" rx="15" fill="#EFF6FF" stroke="#2563EB" stroke-width="1"/><text x="96" y="877" font-family="Inter, Geist, Arial, sans-serif" font-size="14" font-weight="800" fill="#2563EB">Safety</text><rect x="350" y="220" width="950" height="690" rx="30" fill="#FFFFFF" stroke="#E2E8F0" stroke-width="1"/><text x="390" y="280" font-family="Inter, Geist, Arial, sans-serif" font-size="28" font-weight="900" fill="#0B1220">Safety controls</text><rect x="390" y="335" width="58" height="32" rx="16" fill="#2563EB" stroke="#2563EB" stroke-width="1"/><circle cx="432" cy="351" r="11" fill="#FFF"/><text x="470" y="358" font-family="Inter, Geist, Arial, sans-serif" font-size="16" font-weight="800" fill="#0B1220">No diagnosis or treatment advice</text><rect x="920" y="326" width="100" height="34" rx="17" fill="#DC2626" opacity="0.12"/><text x="935" y="348" font-family="Inter, Arial" font-size="12" font-weight="800" fill="#DC2626">Strict</text><rect x="390" y="393" width="58" height="32" rx="16" fill="#2563EB" stroke="#2563EB" stroke-width="1"/><circle cx="432" cy="409" r="11" fill="#FFF"/><text x="470" y="416" font-family="Inter, Geist, Arial, sans-serif" font-size="16" font-weight="800" fill="#0B1220">No prescription recommendations</text><rect x="920" y="384" width="100" height="34" rx="17" fill="#DC2626" opacity="0.12"/><text x="935" y="406" font-family="Inter, Arial" font-size="12" font-weight="800" fill="#DC2626">Strict</text><rect x="390" y="451" width="58" height="32" rx="16" fill="#2563EB" stroke="#2563EB" stroke-width="1"/><circle cx="432" cy="467" r="11" fill="#FFF"/><text x="470" y="474" font-family="Inter, Geist, Arial, sans-serif" font-size="16" font-weight="800" fill="#0B1220">Emergency symptoms trigger urgent guidance</text><rect x="920" y="442" width="100" height="34" rx="17" fill="#16A34A" opacity="0.12"/><text x="935" y="464" font-family="Inter, Arial" font-size="12" font-weight="800" fill="#16A34A">Enabled</text><rect x="390" y="509" width="58" height="32" rx="16" fill="#2563EB" stroke="#2563EB" stroke-width="1"/><circle cx="432" cy="525" r="11" fill="#FFF"/><text x="470" y="532" font-family="Inter, Geist, Arial, sans-serif" font-size="16" font-weight="800" fill="#0B1220">Low confidence triggers human handoff</text><rect x="920" y="500" width="100" height="34" rx="17" fill="#16A34A" opacity="0.12"/><text x="935" y="522" font-family="Inter, Arial" font-size="12" font-weight="800" fill="#16A34A">Enabled</text><rect x="390" y="567" width="58" height="32" rx="16" fill="#2563EB" stroke="#2563EB" stroke-width="1"/><circle cx="432" cy="583" r="11" fill="#FFF"/><text x="470" y="590" font-family="Inter, Geist, Arial, sans-serif" font-size="16" font-weight="800" fill="#0B1220">Sensitive requests require staff review</text><rect x="920" y="558" width="100" height="34" rx="17" fill="#16A34A" opacity="0.12"/><text x="935" y="580" font-family="Inter, Arial" font-size="12" font-weight="800" fill="#16A34A">Enabled</text><rect x="390" y="680" width="800" height="120" rx="24" fill="#FEF2F2" stroke="#FEF2F2" stroke-width="1"/><text x="425" y="725" font-family="Inter, Geist, Arial, sans-serif" font-size="20" font-weight="900" fill="#DC2626">Emergency response preview</text><text x="425" y="760" font-family="Inter, Geist, Arial, sans-serif" font-size="15" font-weight="750" fill="#DC2626">I can’t provide emergency medical help. If this is urgent, call emergency services or go to the nearest ER.</text></svg>